<svg width="165" height="50" viewBox="0 0 165 50" fill="none" xmlns="http://www.w3.org/2000/svg">
<g filter="url(#filter0_i_60_183)">
<rect x="0.5" width="164" height="50" rx="25" fill="url(#paint0_linear_60_183)"/>
<path d="M49.44 24.86C50.1867 24.9933 50.82 25.3867 51.34 26.04C51.86 26.6933 52.12 27.4333 52.12 28.26C52.12 28.9667 51.9333 29.6067 51.56 30.18C51.2 30.74 50.6733 31.1867 49.98 31.52C49.2867 31.84 48.48 32 47.56 32H42V18.1H47.3C48.2467 18.1 49.06 18.26 49.74 18.58C50.42 18.9 50.9333 19.3333 51.28 19.88C51.6267 20.4133 51.8 21.0133 51.8 21.68C51.8 22.48 51.5867 23.1467 51.16 23.68C50.7333 24.2133 50.16 24.6067 49.44 24.86ZM44.28 23.94H47.1C47.8467 23.94 48.4267 23.7733 48.84 23.44C49.2667 23.0933 49.48 22.6 49.48 21.96C49.48 21.3333 49.2667 20.8467 48.84 20.5C48.4267 20.14 47.8467 19.96 47.1 19.96H44.28V23.94ZM47.36 30.14C48.1333 30.14 48.74 29.9533 49.18 29.58C49.62 29.2067 49.84 28.6867 49.84 28.02C49.84 27.34 49.6067 26.8 49.14 26.4C48.6733 26 48.0533 25.8 47.28 25.8H44.28V30.14H47.36ZM64.1377 20.98V32H61.8577V30.7C61.4977 31.1533 61.0243 31.5133 60.4377 31.78C59.8643 32.0333 59.251 32.16 58.5977 32.16C57.731 32.16 56.951 31.98 56.2577 31.62C55.5777 31.26 55.0377 30.7267 54.6377 30.02C54.251 29.3133 54.0577 28.46 54.0577 27.46V20.98H56.3177V27.12C56.3177 28.1067 56.5643 28.8667 57.0577 29.4C57.551 29.92 58.2243 30.18 59.0777 30.18C59.931 30.18 60.6043 29.92 61.0977 29.4C61.6043 28.8667 61.8577 28.1067 61.8577 27.12V20.98H64.1377ZM76.6259 20.98L69.8659 37.18H67.5059L69.7459 31.82L65.4059 20.98H67.9459L71.0459 29.38L74.2659 20.98H76.6259ZM94.0819 32H91.8019L84.9419 21.62V32H82.6619V18.08H84.9419L91.8019 28.44V18.08H94.0819V32ZM101.416 32.18C100.376 32.18 99.4359 31.9467 98.5959 31.48C97.7559 31 97.0959 30.3333 96.6159 29.48C96.1359 28.6133 95.8959 27.6133 95.8959 26.48C95.8959 25.36 96.1426 24.3667 96.6359 23.5C97.1293 22.6333 97.8026 21.9667 98.6559 21.5C99.5093 21.0333 100.463 20.8 101.516 20.8C102.569 20.8 103.523 21.0333 104.376 21.5C105.229 21.9667 105.903 22.6333 106.396 23.5C106.889 24.3667 107.136 25.36 107.136 26.48C107.136 27.6 106.883 28.5933 106.376 29.46C105.869 30.3267 105.176 31 104.296 31.48C103.429 31.9467 102.469 32.18 101.416 32.18ZM101.416 30.2C102.003 30.2 102.549 30.06 103.056 29.78C103.576 29.5 103.996 29.08 104.316 28.52C104.636 27.96 104.796 27.28 104.796 26.48C104.796 25.68 104.643 25.0067 104.336 24.46C104.029 23.9 103.623 23.48 103.116 23.2C102.609 22.92 102.063 22.78 101.476 22.78C100.889 22.78 100.343 22.92 99.8359 23.2C99.3426 23.48 98.9493 23.9 98.6559 24.46C98.3626 25.0067 98.2159 25.68 98.2159 26.48C98.2159 27.6667 98.5159 28.5867 99.1159 29.24C99.7293 29.88 100.496 30.2 101.416 30.2ZM123.75 20.98L120.33 32H117.93L115.71 23.86L113.49 32H111.09L107.65 20.98H109.97L112.27 29.84L114.61 20.98H116.99L119.23 29.8L121.51 20.98H123.75Z" fill="black"/>
<rect x="1.5" y="1" width="162" height="48" rx="24" stroke="url(#paint1_linear_60_183)" stroke-width="2"/>
</g>
<defs>
<filter id="filter0_i_60_183" x="0.5" y="0" width="166" height="53" filterUnits="userSpaceOnUse" color-interpolation-filters="sRGB">
<feFlood flood-opacity="0" result="BackgroundImageFix"/>
<feBlend mode="normal" in="SourceGraphic" in2="BackgroundImageFix" result="shape"/>
<feColorMatrix in="SourceAlpha" type="matrix" values="0 0 0 0 0 0 0 0 0 0 0 0 0 0 0 0 0 0 127 0" result="hardAlpha"/>
<feOffset dx="2" dy="3"/>
<feGaussianBlur stdDeviation="2"/>
<feComposite in2="hardAlpha" operator="arithmetic" k2="-1" k3="1"/>
<feColorMatrix type="matrix" values="0 0 0 0 1 0 0 0 0 1 0 0 0 0 1 0 0 0 0.6 0"/>
<feBlend mode="normal" in2="shape" result="effect1_innerShadow_60_183"/>
</filter>
<linearGradient id="paint0_linear_60_183" x1="0.500001" y1="25" x2="164.5" y2="25" gradientUnits="userSpaceOnUse">
<stop stop-color="#3994DF"/>
<stop offset="1" stop-color="#1FB5BB"/>
</linearGradient>
<linearGradient id="paint1_linear_60_183" x1="82.5" y1="4.00512e-08" x2="82.9097" y2="50.0011" gradientUnits="userSpaceOnUse">
<stop stop-color="#3994DF"/>
<stop offset="1" stop-color="#1FB5BB"/>
</linearGradient>
</defs>
</svg>
