<svg width="165" height="51" viewBox="0 0 165 51" fill="none" xmlns="http://www.w3.org/2000/svg">
<path d="M49.44 25.36C50.1867 25.4933 50.82 25.8867 51.34 26.54C51.86 27.1933 52.12 27.9333 52.12 28.76C52.12 29.4667 51.9333 30.1067 51.56 30.68C51.2 31.24 50.6733 31.6867 49.98 32.02C49.2867 32.34 48.48 32.5 47.56 32.5H42V18.6H47.3C48.2467 18.6 49.06 18.76 49.74 19.08C50.42 19.4 50.9333 19.8333 51.28 20.38C51.6267 20.9133 51.8 21.5133 51.8 22.18C51.8 22.98 51.5867 23.6467 51.16 24.18C50.7333 24.7133 50.16 25.1067 49.44 25.36ZM44.28 24.44H47.1C47.8467 24.44 48.4267 24.2733 48.84 23.94C49.2667 23.5933 49.48 23.1 49.48 22.46C49.48 21.8333 49.2667 21.3467 48.84 21C48.4267 20.64 47.8467 20.46 47.1 20.46H44.28V24.44ZM47.36 30.64C48.1333 30.64 48.74 30.4533 49.18 30.08C49.62 29.7067 49.84 29.1867 49.84 28.52C49.84 27.84 49.6067 27.3 49.14 26.9C48.6733 26.5 48.0533 26.3 47.28 26.3H44.28V30.64H47.36ZM64.1377 21.48V32.5H61.8577V31.2C61.4977 31.6533 61.0243 32.0133 60.4377 32.28C59.8643 32.5333 59.251 32.66 58.5977 32.66C57.731 32.66 56.951 32.48 56.2577 32.12C55.5777 31.76 55.0377 31.2267 54.6377 30.52C54.251 29.8133 54.0577 28.96 54.0577 27.96V21.48H56.3177V27.62C56.3177 28.6067 56.5643 29.3667 57.0577 29.9C57.551 30.42 58.2243 30.68 59.0777 30.68C59.931 30.68 60.6043 30.42 61.0977 29.9C61.6043 29.3667 61.8577 28.6067 61.8577 27.62V21.48H64.1377ZM76.6259 21.48L69.8659 37.68H67.5059L69.7459 32.32L65.4059 21.48H67.9459L71.0459 29.88L74.2659 21.48H76.6259ZM94.0819 32.5H91.8019L84.9419 22.12V32.5H82.6619V18.58H84.9419L91.8019 28.94V18.58H94.0819V32.5ZM101.416 32.68C100.376 32.68 99.4359 32.4467 98.5959 31.98C97.7559 31.5 97.0959 30.8333 96.6159 29.98C96.1359 29.1133 95.8959 28.1133 95.8959 26.98C95.8959 25.86 96.1426 24.8667 96.6359 24C97.1293 23.1333 97.8026 22.4667 98.6559 22C99.5093 21.5333 100.463 21.3 101.516 21.3C102.569 21.3 103.523 21.5333 104.376 22C105.229 22.4667 105.903 23.1333 106.396 24C106.889 24.8667 107.136 25.86 107.136 26.98C107.136 28.1 106.883 29.0933 106.376 29.96C105.869 30.8267 105.176 31.5 104.296 31.98C103.429 32.4467 102.469 32.68 101.416 32.68ZM101.416 30.7C102.003 30.7 102.549 30.56 103.056 30.28C103.576 30 103.996 29.58 104.316 29.02C104.636 28.46 104.796 27.78 104.796 26.98C104.796 26.18 104.643 25.5067 104.336 24.96C104.029 24.4 103.623 23.98 103.116 23.7C102.609 23.42 102.063 23.28 101.476 23.28C100.889 23.28 100.343 23.42 99.8359 23.7C99.3426 23.98 98.9493 24.4 98.6559 24.96C98.3626 25.5067 98.2159 26.18 98.2159 26.98C98.2159 28.1667 98.5159 29.0867 99.1159 29.74C99.7293 30.38 100.496 30.7 101.416 30.7ZM123.75 21.48L120.33 32.5H117.93L115.71 24.36L113.49 32.5H111.09L107.65 21.48H109.97L112.27 30.34L114.61 21.48H116.99L119.23 30.3L121.51 21.48H123.75Z" fill="white"/>
<rect x="1.5" y="1.5" width="162" height="48" rx="24" stroke="url(#paint0_linear_60_182)" stroke-width="2"/>
<defs>
<linearGradient id="paint0_linear_60_182" x1="0.500001" y1="25.5" x2="164.5" y2="25.5" gradientUnits="userSpaceOnUse">
<stop stop-color="#3994DF"/>
<stop offset="1" stop-color="#1FB5BB"/>
</linearGradient>
</defs>
</svg>
