<svg width="177" height="51" viewBox="0 0 177 51" fill="none" xmlns="http://www.w3.org/2000/svg">
<path d="M50.18 18.6V20.46H44.28V24.56H48.88V26.42H44.28V32.5H42V18.6H50.18ZM61.833 21.48V32.5H59.553V31.2C59.193 31.6533 58.7196 32.0133 58.133 32.28C57.5596 32.5333 56.9463 32.66 56.293 32.66C55.4263 32.66 54.6463 32.48 53.953 32.12C53.273 31.76 52.733 31.2267 52.333 30.52C51.9463 29.8133 51.753 28.96 51.753 27.96V21.48H54.013V27.62C54.013 28.6067 54.2596 29.3667 54.753 29.9C55.2463 30.42 55.9196 30.68 56.773 30.68C57.6263 30.68 58.2996 30.42 58.793 29.9C59.2996 29.3667 59.553 28.6067 59.553 27.62V21.48H61.833ZM66.6813 17.7V32.5H64.4013V17.7H66.6813ZM71.5147 17.7V32.5H69.2347V17.7H71.5147ZM83.4034 32.64C82.4701 32.64 81.6301 32.48 80.8834 32.16C80.1368 31.8267 79.5501 31.36 79.1234 30.76C78.6968 30.16 78.4834 29.46 78.4834 28.66H80.9234C80.9768 29.26 81.2101 29.7533 81.6234 30.14C82.0501 30.5267 82.6434 30.72 83.4034 30.72C84.1901 30.72 84.8034 30.5333 85.2434 30.16C85.6834 29.7733 85.9034 29.28 85.9034 28.68C85.9034 28.2133 85.7634 27.8333 85.4834 27.54C85.2168 27.2467 84.8768 27.02 84.4634 26.86C84.0634 26.7 83.5034 26.5267 82.7834 26.34C81.8768 26.1 81.1368 25.86 80.5634 25.62C80.0034 25.3667 79.5234 24.98 79.1234 24.46C78.7234 23.94 78.5234 23.2467 78.5234 22.38C78.5234 21.58 78.7234 20.88 79.1234 20.28C79.5234 19.68 80.0834 19.22 80.8034 18.9C81.5234 18.58 82.3568 18.42 83.3034 18.42C84.6501 18.42 85.7501 18.76 86.6034 19.44C87.4701 20.1067 87.9501 21.0267 88.0434 22.2H85.5234C85.4834 21.6933 85.2434 21.26 84.8034 20.9C84.3634 20.54 83.7834 20.36 83.0634 20.36C82.4101 20.36 81.8768 20.5267 81.4634 20.86C81.0501 21.1933 80.8434 21.6733 80.8434 22.3C80.8434 22.7267 80.9701 23.08 81.2234 23.36C81.4901 23.6267 81.8234 23.84 82.2234 24C82.6234 24.16 83.1701 24.3333 83.8634 24.52C84.7834 24.7733 85.5301 25.0267 86.1034 25.28C86.6901 25.5333 87.1834 25.9267 87.5834 26.46C87.9968 26.98 88.2034 27.68 88.2034 28.56C88.2034 29.2667 88.0101 29.9333 87.6234 30.56C87.2501 31.1867 86.6968 31.6933 85.9634 32.08C85.2434 32.4533 84.3901 32.64 83.4034 32.64ZM92.7338 23.1C93.1204 22.5933 93.6471 22.1667 94.3138 21.82C94.9804 21.4733 95.7338 21.3 96.5738 21.3C97.5338 21.3 98.4071 21.54 99.1938 22.02C99.9938 22.4867 100.62 23.1467 101.074 24C101.527 24.8533 101.754 25.8333 101.754 26.94C101.754 28.0467 101.527 29.04 101.074 29.92C100.62 30.7867 99.9938 31.4667 99.1938 31.96C98.4071 32.44 97.5338 32.68 96.5738 32.68C95.7338 32.68 94.9871 32.5133 94.3338 32.18C93.6804 31.8333 93.1471 31.4067 92.7338 30.9V37.74H90.4538V21.48H92.7338V23.1ZM99.4338 26.94C99.4338 26.18 99.2738 25.5267 98.9538 24.98C98.6471 24.42 98.2338 24 97.7138 23.72C97.2071 23.4267 96.6604 23.28 96.0738 23.28C95.5004 23.28 94.9538 23.4267 94.4338 23.72C93.9271 24.0133 93.5138 24.44 93.1938 25C92.8871 25.56 92.7338 26.22 92.7338 26.98C92.7338 27.74 92.8871 28.4067 93.1938 28.98C93.5138 29.54 93.9271 29.9667 94.4338 30.26C94.9538 30.5533 95.5004 30.7 96.0738 30.7C96.6604 30.7 97.2071 30.5533 97.7138 30.26C98.2338 29.9533 98.6471 29.5133 98.9538 28.94C99.2738 28.3667 99.4338 27.7 99.4338 26.94ZM113.668 26.72C113.668 27.1333 113.642 27.5067 113.588 27.84H105.168C105.235 28.72 105.562 29.4267 106.148 29.96C106.735 30.4933 107.455 30.76 108.308 30.76C109.535 30.76 110.402 30.2467 110.908 29.22H113.368C113.035 30.2333 112.428 31.0667 111.548 31.72C110.682 32.36 109.602 32.68 108.308 32.68C107.255 32.68 106.308 32.4467 105.468 31.98C104.642 31.5 103.988 30.8333 103.508 29.98C103.042 29.1133 102.808 28.1133 102.808 26.98C102.808 25.8467 103.035 24.8533 103.488 24C103.955 23.1333 104.602 22.4667 105.428 22C106.268 21.5333 107.228 21.3 108.308 21.3C109.348 21.3 110.275 21.5267 111.088 21.98C111.902 22.4333 112.535 23.0733 112.988 23.9C113.442 24.7133 113.668 25.6533 113.668 26.72ZM111.288 26C111.275 25.16 110.975 24.4867 110.388 23.98C109.802 23.4733 109.075 23.22 108.208 23.22C107.422 23.22 106.748 23.4733 106.188 23.98C105.628 24.4733 105.295 25.1467 105.188 26H111.288ZM114.712 26.98C114.712 25.8467 114.939 24.8533 115.392 24C115.859 23.1333 116.499 22.4667 117.312 22C118.126 21.5333 119.059 21.3 120.112 21.3C121.446 21.3 122.546 21.62 123.412 22.26C124.292 22.8867 124.886 23.7867 125.192 24.96H122.732C122.532 24.4133 122.212 23.9867 121.772 23.68C121.332 23.3733 120.779 23.22 120.112 23.22C119.179 23.22 118.432 23.5533 117.872 24.22C117.326 24.8733 117.052 25.7933 117.052 26.98C117.052 28.1667 117.326 29.0933 117.872 29.76C118.432 30.4267 119.179 30.76 120.112 30.76C121.432 30.76 122.306 30.18 122.732 29.02H125.192C124.872 30.14 124.272 31.0333 123.392 31.7C122.512 32.3533 121.419 32.68 120.112 32.68C119.059 32.68 118.126 32.4467 117.312 31.98C116.499 31.5 115.859 30.8333 115.392 29.98C114.939 29.1133 114.712 28.1133 114.712 26.98ZM131.024 32.68C130.158 32.68 129.378 32.5267 128.684 32.22C128.004 31.9 127.464 31.4733 127.064 30.94C126.664 30.3933 126.451 29.7867 126.424 29.12H128.784C128.824 29.5867 129.044 29.98 129.444 30.3C129.858 30.6067 130.371 30.76 130.984 30.76C131.624 30.76 132.118 30.64 132.464 30.4C132.824 30.1467 133.004 29.8267 133.004 29.44C133.004 29.0267 132.804 28.72 132.404 28.52C132.018 28.32 131.398 28.1 130.544 27.86C129.718 27.6333 129.044 27.4133 128.524 27.2C128.004 26.9867 127.551 26.66 127.164 26.22C126.791 25.78 126.604 25.2 126.604 24.48C126.604 23.8933 126.778 23.36 127.124 22.88C127.471 22.3867 127.964 22 128.604 21.72C129.258 21.44 130.004 21.3 130.844 21.3C132.098 21.3 133.104 21.62 133.864 22.26C134.638 22.8867 135.051 23.7467 135.104 24.84H132.824C132.784 24.3467 132.584 23.9533 132.224 23.66C131.864 23.3667 131.378 23.22 130.764 23.22C130.164 23.22 129.704 23.3333 129.384 23.56C129.064 23.7867 128.904 24.0867 128.904 24.46C128.904 24.7533 129.011 25 129.224 25.2C129.438 25.4 129.698 25.56 130.004 25.68C130.311 25.7867 130.764 25.9267 131.364 26.1C132.164 26.3133 132.818 26.5333 133.324 26.76C133.844 26.9733 134.291 27.2933 134.664 27.72C135.038 28.1467 135.231 28.7133 135.244 29.42C135.244 30.0467 135.071 30.6067 134.724 31.1C134.378 31.5933 133.884 31.98 133.244 32.26C132.618 32.54 131.878 32.68 131.024 32.68Z" fill="white"/>
<rect x="1.5" y="1.5" width="174" height="48" rx="24" stroke="url(#paint0_linear_129_308)" stroke-width="2"/>
<defs>
<linearGradient id="paint0_linear_129_308" x1="0.500001" y1="25.5" x2="176.5" y2="25.5" gradientUnits="userSpaceOnUse">
<stop stop-color="#3994DF"/>
<stop offset="1" stop-color="#1FB5BB"/>
</linearGradient>
</defs>
</svg>
