<svg width="177" height="50" viewBox="0 0 177 50" fill="none" xmlns="http://www.w3.org/2000/svg">
<g filter="url(#filter0_i_129_310)">
<rect x="0.5" width="176" height="50" rx="25" fill="url(#paint0_linear_129_310)"/>
<path d="M50.18 18.1V19.96H44.28V24.06H48.88V25.92H44.28V32H42V18.1H50.18ZM61.833 20.98V32H59.553V30.7C59.193 31.1533 58.7196 31.5133 58.133 31.78C57.5596 32.0333 56.9463 32.16 56.293 32.16C55.4263 32.16 54.6463 31.98 53.953 31.62C53.273 31.26 52.733 30.7267 52.333 30.02C51.9463 29.3133 51.753 28.46 51.753 27.46V20.98H54.013V27.12C54.013 28.1067 54.2596 28.8667 54.753 29.4C55.2463 29.92 55.9196 30.18 56.773 30.18C57.6263 30.18 58.2996 29.92 58.793 29.4C59.2996 28.8667 59.553 28.1067 59.553 27.12V20.98H61.833ZM66.6813 17.2V32H64.4013V17.2H66.6813ZM71.5147 17.2V32H69.2347V17.2H71.5147ZM83.4034 32.14C82.4701 32.14 81.6301 31.98 80.8834 31.66C80.1368 31.3267 79.5501 30.86 79.1234 30.26C78.6968 29.66 78.4834 28.96 78.4834 28.16H80.9234C80.9768 28.76 81.2101 29.2533 81.6234 29.64C82.0501 30.0267 82.6434 30.22 83.4034 30.22C84.1901 30.22 84.8034 30.0333 85.2434 29.66C85.6834 29.2733 85.9034 28.78 85.9034 28.18C85.9034 27.7133 85.7634 27.3333 85.4834 27.04C85.2168 26.7467 84.8768 26.52 84.4634 26.36C84.0634 26.2 83.5034 26.0267 82.7834 25.84C81.8768 25.6 81.1368 25.36 80.5634 25.12C80.0034 24.8667 79.5234 24.48 79.1234 23.96C78.7234 23.44 78.5234 22.7467 78.5234 21.88C78.5234 21.08 78.7234 20.38 79.1234 19.78C79.5234 19.18 80.0834 18.72 80.8034 18.4C81.5234 18.08 82.3568 17.92 83.3034 17.92C84.6501 17.92 85.7501 18.26 86.6034 18.94C87.4701 19.6067 87.9501 20.5267 88.0434 21.7H85.5234C85.4834 21.1933 85.2434 20.76 84.8034 20.4C84.3634 20.04 83.7834 19.86 83.0634 19.86C82.4101 19.86 81.8768 20.0267 81.4634 20.36C81.0501 20.6933 80.8434 21.1733 80.8434 21.8C80.8434 22.2267 80.9701 22.58 81.2234 22.86C81.4901 23.1267 81.8234 23.34 82.2234 23.5C82.6234 23.66 83.1701 23.8333 83.8634 24.02C84.7834 24.2733 85.5301 24.5267 86.1034 24.78C86.6901 25.0333 87.1834 25.4267 87.5834 25.96C87.9968 26.48 88.2034 27.18 88.2034 28.06C88.2034 28.7667 88.0101 29.4333 87.6234 30.06C87.2501 30.6867 86.6968 31.1933 85.9634 31.58C85.2434 31.9533 84.3901 32.14 83.4034 32.14ZM92.7338 22.6C93.1204 22.0933 93.6471 21.6667 94.3138 21.32C94.9804 20.9733 95.7338 20.8 96.5738 20.8C97.5338 20.8 98.4071 21.04 99.1938 21.52C99.9938 21.9867 100.62 22.6467 101.074 23.5C101.527 24.3533 101.754 25.3333 101.754 26.44C101.754 27.5467 101.527 28.54 101.074 29.42C100.62 30.2867 99.9938 30.9667 99.1938 31.46C98.4071 31.94 97.5338 32.18 96.5738 32.18C95.7338 32.18 94.9871 32.0133 94.3338 31.68C93.6804 31.3333 93.1471 30.9067 92.7338 30.4V37.24H90.4538V20.98H92.7338V22.6ZM99.4338 26.44C99.4338 25.68 99.2738 25.0267 98.9538 24.48C98.6471 23.92 98.2338 23.5 97.7138 23.22C97.2071 22.9267 96.6604 22.78 96.0738 22.78C95.5004 22.78 94.9538 22.9267 94.4338 23.22C93.9271 23.5133 93.5138 23.94 93.1938 24.5C92.8871 25.06 92.7338 25.72 92.7338 26.48C92.7338 27.24 92.8871 27.9067 93.1938 28.48C93.5138 29.04 93.9271 29.4667 94.4338 29.76C94.9538 30.0533 95.5004 30.2 96.0738 30.2C96.6604 30.2 97.2071 30.0533 97.7138 29.76C98.2338 29.4533 98.6471 29.0133 98.9538 28.44C99.2738 27.8667 99.4338 27.2 99.4338 26.44ZM113.668 26.22C113.668 26.6333 113.642 27.0067 113.588 27.34H105.168C105.235 28.22 105.562 28.9267 106.148 29.46C106.735 29.9933 107.455 30.26 108.308 30.26C109.535 30.26 110.402 29.7467 110.908 28.72H113.368C113.035 29.7333 112.428 30.5667 111.548 31.22C110.682 31.86 109.602 32.18 108.308 32.18C107.255 32.18 106.308 31.9467 105.468 31.48C104.642 31 103.988 30.3333 103.508 29.48C103.042 28.6133 102.808 27.6133 102.808 26.48C102.808 25.3467 103.035 24.3533 103.488 23.5C103.955 22.6333 104.602 21.9667 105.428 21.5C106.268 21.0333 107.228 20.8 108.308 20.8C109.348 20.8 110.275 21.0267 111.088 21.48C111.902 21.9333 112.535 22.5733 112.988 23.4C113.442 24.2133 113.668 25.1533 113.668 26.22ZM111.288 25.5C111.275 24.66 110.975 23.9867 110.388 23.48C109.802 22.9733 109.075 22.72 108.208 22.72C107.422 22.72 106.748 22.9733 106.188 23.48C105.628 23.9733 105.295 24.6467 105.188 25.5H111.288ZM114.712 26.48C114.712 25.3467 114.939 24.3533 115.392 23.5C115.859 22.6333 116.499 21.9667 117.312 21.5C118.126 21.0333 119.059 20.8 120.112 20.8C121.446 20.8 122.546 21.12 123.412 21.76C124.292 22.3867 124.886 23.2867 125.192 24.46H122.732C122.532 23.9133 122.212 23.4867 121.772 23.18C121.332 22.8733 120.779 22.72 120.112 22.72C119.179 22.72 118.432 23.0533 117.872 23.72C117.326 24.3733 117.052 25.2933 117.052 26.48C117.052 27.6667 117.326 28.5933 117.872 29.26C118.432 29.9267 119.179 30.26 120.112 30.26C121.432 30.26 122.306 29.68 122.732 28.52H125.192C124.872 29.64 124.272 30.5333 123.392 31.2C122.512 31.8533 121.419 32.18 120.112 32.18C119.059 32.18 118.126 31.9467 117.312 31.48C116.499 31 115.859 30.3333 115.392 29.48C114.939 28.6133 114.712 27.6133 114.712 26.48ZM131.024 32.18C130.158 32.18 129.378 32.0267 128.684 31.72C128.004 31.4 127.464 30.9733 127.064 30.44C126.664 29.8933 126.451 29.2867 126.424 28.62H128.784C128.824 29.0867 129.044 29.48 129.444 29.8C129.858 30.1067 130.371 30.26 130.984 30.26C131.624 30.26 132.118 30.14 132.464 29.9C132.824 29.6467 133.004 29.3267 133.004 28.94C133.004 28.5267 132.804 28.22 132.404 28.02C132.018 27.82 131.398 27.6 130.544 27.36C129.718 27.1333 129.044 26.9133 128.524 26.7C128.004 26.4867 127.551 26.16 127.164 25.72C126.791 25.28 126.604 24.7 126.604 23.98C126.604 23.3933 126.778 22.86 127.124 22.38C127.471 21.8867 127.964 21.5 128.604 21.22C129.258 20.94 130.004 20.8 130.844 20.8C132.098 20.8 133.104 21.12 133.864 21.76C134.638 22.3867 135.051 23.2467 135.104 24.34H132.824C132.784 23.8467 132.584 23.4533 132.224 23.16C131.864 22.8667 131.378 22.72 130.764 22.72C130.164 22.72 129.704 22.8333 129.384 23.06C129.064 23.2867 128.904 23.5867 128.904 23.96C128.904 24.2533 129.011 24.5 129.224 24.7C129.438 24.9 129.698 25.06 130.004 25.18C130.311 25.2867 130.764 25.4267 131.364 25.6C132.164 25.8133 132.818 26.0333 133.324 26.26C133.844 26.4733 134.291 26.7933 134.664 27.22C135.038 27.6467 135.231 28.2133 135.244 28.92C135.244 29.5467 135.071 30.1067 134.724 30.6C134.378 31.0933 133.884 31.48 133.244 31.76C132.618 32.04 131.878 32.18 131.024 32.18Z" fill="black"/>
<rect x="1.5" y="1" width="174" height="48" rx="24" stroke="url(#paint1_linear_129_310)" stroke-width="2"/>
</g>
<defs>
<filter id="filter0_i_129_310" x="0.5" y="0" width="178" height="53" filterUnits="userSpaceOnUse" color-interpolation-filters="sRGB">
<feFlood flood-opacity="0" result="BackgroundImageFix"/>
<feBlend mode="normal" in="SourceGraphic" in2="BackgroundImageFix" result="shape"/>
<feColorMatrix in="SourceAlpha" type="matrix" values="0 0 0 0 0 0 0 0 0 0 0 0 0 0 0 0 0 0 127 0" result="hardAlpha"/>
<feOffset dx="2" dy="3"/>
<feGaussianBlur stdDeviation="2"/>
<feComposite in2="hardAlpha" operator="arithmetic" k2="-1" k3="1"/>
<feColorMatrix type="matrix" values="0 0 0 0 1 0 0 0 0 1 0 0 0 0 1 0 0 0 0.6 0"/>
<feBlend mode="normal" in2="shape" result="effect1_innerShadow_129_310"/>
</filter>
<linearGradient id="paint0_linear_129_310" x1="0.500001" y1="25" x2="176.5" y2="25" gradientUnits="userSpaceOnUse">
<stop stop-color="#3994DF"/>
<stop offset="1" stop-color="#1FB5BB"/>
</linearGradient>
<linearGradient id="paint1_linear_129_310" x1="88.5" y1="4.00512e-08" x2="88.8818" y2="50.0015" gradientUnits="userSpaceOnUse">
<stop stop-color="#3994DF"/>
<stop offset="1" stop-color="#1FB5BB"/>
</linearGradient>
</defs>
</svg>
