<svg width="1380" height="219" viewBox="0 0 1380 219" fill="none" xmlns="http://www.w3.org/2000/svg">
<rect width="1380" height="219" fill="black" fill-opacity="0.6"/>
<path d="M56.8759 91.21C54.9159 91.21 53.1159 90.75 51.4759 89.83C49.8359 88.91 48.5359 87.64 47.5759 86.02C46.6159 84.38 46.1359 82.53 46.1359 80.47C46.1359 78.43 46.6159 76.6 47.5759 74.98C48.5359 73.34 49.8359 72.06 51.4759 71.14C53.1159 70.22 54.9159 69.76 56.8759 69.76C58.8559 69.76 60.6559 70.22 62.2759 71.14C63.9159 72.06 65.2059 73.34 66.1459 74.98C67.1059 76.6 67.5859 78.43 67.5859 80.47C67.5859 82.53 67.1059 84.38 66.1459 86.02C65.2059 87.64 63.9159 88.91 62.2759 89.83C60.6359 90.75 58.8359 91.21 56.8759 91.21ZM56.8759 87.46C58.1359 87.46 59.2459 87.18 60.2059 86.62C61.1659 86.04 61.9159 85.22 62.4559 84.16C62.9959 83.1 63.2659 81.87 63.2659 80.47C63.2659 79.07 62.9959 77.85 62.4559 76.81C61.9159 75.75 61.1659 74.94 60.2059 74.38C59.2459 73.82 58.1359 73.54 56.8759 73.54C55.6159 73.54 54.4959 73.82 53.5159 74.38C52.5559 74.94 51.8059 75.75 51.2659 76.81C50.7259 77.85 50.4559 79.07 50.4559 80.47C50.4559 81.87 50.7259 83.1 51.2659 84.16C51.8059 85.22 52.5559 86.04 53.5159 86.62C54.4959 87.18 55.6159 87.46 56.8759 87.46ZM74.9106 76.78C75.4506 76.02 76.1906 75.39 77.1306 74.89C78.0906 74.37 79.1806 74.11 80.4006 74.11C81.8206 74.11 83.1006 74.46 84.2406 75.16C85.4006 75.86 86.3106 76.86 86.9706 78.16C87.6506 79.44 87.9906 80.93 87.9906 82.63C87.9906 84.33 87.6506 85.84 86.9706 87.16C86.3106 88.46 85.4006 89.47 84.2406 90.19C83.1006 90.91 81.8206 91.27 80.4006 91.27C79.1806 91.27 78.1006 91.02 77.1606 90.52C76.2406 90.02 75.4906 89.39 74.9106 88.63V98.92H70.7106V74.38H74.9106V76.78ZM83.7006 82.63C83.7006 81.63 83.4906 80.77 83.0706 80.05C82.6706 79.31 82.1306 78.75 81.4506 78.37C80.7906 77.99 80.0706 77.8 79.2906 77.8C78.5306 77.8 77.8106 78 77.1306 78.4C76.4706 78.78 75.9306 79.34 75.5106 80.08C75.1106 80.82 74.9106 81.69 74.9106 82.69C74.9106 83.69 75.1106 84.56 75.5106 85.3C75.9306 86.04 76.4706 86.61 77.1306 87.01C77.8106 87.39 78.5306 87.58 79.2906 87.58C80.0706 87.58 80.7906 87.38 81.4506 86.98C82.1306 86.58 82.6706 86.01 83.0706 85.27C83.4906 84.53 83.7006 83.65 83.7006 82.63ZM95.9327 77.83V85.87C95.9327 86.43 96.0627 86.84 96.3227 87.1C96.6027 87.34 97.0627 87.46 97.7027 87.46H99.6527V91H97.0127C93.4727 91 91.7027 89.28 91.7027 85.84V77.83H89.7227V74.38H91.7027V70.27H95.9327V74.38H99.6527V77.83H95.9327ZM104.804 72.4C104.064 72.4 103.444 72.17 102.944 71.71C102.464 71.23 102.224 70.64 102.224 69.94C102.224 69.24 102.464 68.66 102.944 68.2C103.444 67.72 104.064 67.48 104.804 67.48C105.544 67.48 106.154 67.72 106.634 68.2C107.134 68.66 107.384 69.24 107.384 69.94C107.384 70.64 107.134 71.23 106.634 71.71C106.154 72.17 105.544 72.4 104.804 72.4ZM106.874 74.38V91H102.674V74.38H106.874ZM131.663 74.14C133.703 74.14 135.343 74.77 136.583 76.03C137.843 77.27 138.473 79.01 138.473 81.25V91H134.273V81.82C134.273 80.52 133.943 79.53 133.283 78.85C132.623 78.15 131.723 77.8 130.583 77.8C129.443 77.8 128.533 78.15 127.853 78.85C127.193 79.53 126.863 80.52 126.863 81.82V91H122.663V81.82C122.663 80.52 122.333 79.53 121.673 78.85C121.013 78.15 120.113 77.8 118.973 77.8C117.813 77.8 116.893 78.15 116.213 78.85C115.553 79.53 115.223 80.52 115.223 81.82V91H111.023V74.38H115.223V76.39C115.763 75.69 116.453 75.14 117.293 74.74C118.153 74.34 119.093 74.14 120.113 74.14C121.413 74.14 122.573 74.42 123.593 74.98C124.613 75.52 125.403 76.3 125.963 77.32C126.503 76.36 127.283 75.59 128.303 75.01C129.343 74.43 130.463 74.14 131.663 74.14ZM144.589 72.4C143.849 72.4 143.229 72.17 142.729 71.71C142.249 71.23 142.009 70.64 142.009 69.94C142.009 69.24 142.249 68.66 142.729 68.2C143.229 67.72 143.849 67.48 144.589 67.48C145.329 67.48 145.939 67.72 146.419 68.2C146.919 68.66 147.169 69.24 147.169 69.94C147.169 70.64 146.919 71.23 146.419 71.71C145.939 72.17 145.329 72.4 144.589 72.4ZM146.659 74.38V91H142.459V74.38H146.659ZM154.648 87.55H162.058V91H149.878V87.61L157.138 77.83H149.908V74.38H161.968V77.77L154.648 87.55ZM180.76 82.33C180.76 82.93 180.72 83.47 180.64 83.95H168.49C168.59 85.15 169.01 86.09 169.75 86.77C170.49 87.45 171.4 87.79 172.48 87.79C174.04 87.79 175.15 87.12 175.81 85.78H180.34C179.86 87.38 178.94 88.7 177.58 89.74C176.22 90.76 174.55 91.27 172.57 91.27C170.97 91.27 169.53 90.92 168.25 90.22C166.99 89.5 166 88.49 165.28 87.19C164.58 85.89 164.23 84.39 164.23 82.69C164.23 80.97 164.58 79.46 165.28 78.16C165.98 76.86 166.96 75.86 168.22 75.16C169.48 74.46 170.93 74.11 172.57 74.11C174.15 74.11 175.56 74.45 176.8 75.13C178.06 75.81 179.03 76.78 179.71 78.04C180.41 79.28 180.76 80.71 180.76 82.33ZM176.41 81.13C176.39 80.05 176 79.19 175.24 78.55C174.48 77.89 173.55 77.56 172.45 77.56C171.41 77.56 170.53 77.88 169.81 78.52C169.11 79.14 168.68 80.01 168.52 81.13H176.41ZM182.746 82.63C182.746 80.95 183.076 79.46 183.736 78.16C184.416 76.86 185.336 75.86 186.496 75.16C187.656 74.46 188.946 74.11 190.366 74.11C191.446 74.11 192.476 74.35 193.456 74.83C194.436 75.29 195.216 75.91 195.796 76.69V68.8H200.056V91H195.796V88.54C195.276 89.36 194.546 90.02 193.606 90.52C192.666 91.02 191.576 91.27 190.336 91.27C188.936 91.27 187.656 90.91 186.496 90.19C185.336 89.47 184.416 88.46 183.736 87.16C183.076 85.84 182.746 84.33 182.746 82.63ZM195.826 82.69C195.826 81.67 195.626 80.8 195.226 80.08C194.826 79.34 194.286 78.78 193.606 78.4C192.926 78 192.196 77.8 191.416 77.8C190.636 77.8 189.916 77.99 189.256 78.37C188.596 78.75 188.056 79.31 187.636 80.05C187.236 80.77 187.036 81.63 187.036 82.63C187.036 83.63 187.236 84.51 187.636 85.27C188.056 86.01 188.596 86.58 189.256 86.98C189.936 87.38 190.656 87.58 191.416 87.58C192.196 87.58 192.926 87.39 193.606 87.01C194.286 86.61 194.826 86.05 195.226 85.33C195.626 84.59 195.826 83.71 195.826 82.69ZM226.576 76.54C226.576 77.66 226.306 78.71 225.766 79.69C225.246 80.67 224.416 81.46 223.276 82.06C222.156 82.66 220.736 82.96 219.016 82.96H215.506V91H211.306V70.06H219.016C220.636 70.06 222.016 70.34 223.156 70.9C224.296 71.46 225.146 72.23 225.706 73.21C226.286 74.19 226.576 75.3 226.576 76.54ZM218.836 79.57C219.996 79.57 220.856 79.31 221.416 78.79C221.976 78.25 222.256 77.5 222.256 76.54C222.256 74.5 221.116 73.48 218.836 73.48H215.506V79.57H218.836ZM231.688 72.4C230.948 72.4 230.328 72.17 229.828 71.71C229.348 71.23 229.108 70.64 229.108 69.94C229.108 69.24 229.348 68.66 229.828 68.2C230.328 67.72 230.948 67.48 231.688 67.48C232.428 67.48 233.038 67.72 233.518 68.2C234.018 68.66 234.268 69.24 234.268 69.94C234.268 70.64 234.018 71.23 233.518 71.71C233.038 72.17 232.428 72.4 231.688 72.4ZM233.758 74.38V91H229.558V74.38H233.758ZM247.088 91L243.668 85.84L240.638 91H236.138L241.568 82.66L236.078 74.38H240.818L244.208 79.51L247.268 74.38H251.768L246.308 82.66L251.828 91H247.088ZM269.559 82.33C269.559 82.93 269.519 83.47 269.439 83.95H257.289C257.389 85.15 257.809 86.09 258.549 86.77C259.289 87.45 260.199 87.79 261.279 87.79C262.839 87.79 263.949 87.12 264.609 85.78H269.139C268.659 87.38 267.739 88.7 266.379 89.74C265.019 90.76 263.349 91.27 261.369 91.27C259.769 91.27 258.329 90.92 257.049 90.22C255.789 89.5 254.799 88.49 254.079 87.19C253.379 85.89 253.029 84.39 253.029 82.69C253.029 80.97 253.379 79.46 254.079 78.16C254.779 76.86 255.759 75.86 257.019 75.16C258.279 74.46 259.729 74.11 261.369 74.11C262.949 74.11 264.359 74.45 265.599 75.13C266.859 75.81 267.829 76.78 268.509 78.04C269.209 79.28 269.559 80.71 269.559 82.33ZM265.209 81.13C265.189 80.05 264.799 79.19 264.039 78.55C263.279 77.89 262.349 77.56 261.249 77.56C260.209 77.56 259.329 77.88 258.609 78.52C257.909 79.14 257.479 80.01 257.319 81.13H265.209ZM276.825 68.8V91H272.625V68.8H276.825ZM292.323 87.67H299.223V91H288.123V70.06H292.323V87.67ZM300.812 82.63C300.812 80.95 301.142 79.46 301.802 78.16C302.482 76.86 303.392 75.86 304.532 75.16C305.692 74.46 306.982 74.11 308.402 74.11C309.642 74.11 310.722 74.36 311.642 74.86C312.582 75.36 313.332 75.99 313.892 76.75V74.38H318.122V91H313.892V88.57C313.352 89.35 312.602 90 311.642 90.52C310.702 91.02 309.612 91.27 308.372 91.27C306.972 91.27 305.692 90.91 304.532 90.19C303.392 89.47 302.482 88.46 301.802 87.16C301.142 85.84 300.812 84.33 300.812 82.63ZM313.892 82.69C313.892 81.67 313.692 80.8 313.292 80.08C312.892 79.34 312.352 78.78 311.672 78.4C310.992 78 310.262 77.8 309.482 77.8C308.702 77.8 307.982 77.99 307.322 78.37C306.662 78.75 306.122 79.31 305.702 80.05C305.302 80.77 305.102 81.63 305.102 82.63C305.102 83.63 305.302 84.51 305.702 85.27C306.122 86.01 306.662 86.58 307.322 86.98C308.002 87.38 308.722 87.58 309.482 87.58C310.262 87.58 310.992 87.39 311.672 87.01C312.352 86.61 312.892 86.05 313.292 85.33C313.692 84.59 313.892 83.71 313.892 82.69ZM338.124 74.38L327.834 98.86H323.364L326.964 90.58L320.304 74.38H325.014L329.304 85.99L333.654 74.38H338.124ZM347.768 91.27C346.168 91.27 344.728 90.92 343.448 90.22C342.168 89.5 341.158 88.49 340.418 87.19C339.698 85.89 339.338 84.39 339.338 82.69C339.338 80.99 339.708 79.49 340.448 78.19C341.208 76.89 342.238 75.89 343.538 75.19C344.838 74.47 346.288 74.11 347.888 74.11C349.488 74.11 350.938 74.47 352.238 75.19C353.538 75.89 354.558 76.89 355.298 78.19C356.058 79.49 356.438 80.99 356.438 82.69C356.438 84.39 356.048 85.89 355.268 87.19C354.508 88.49 353.468 89.5 352.148 90.22C350.848 90.92 349.388 91.27 347.768 91.27ZM347.768 87.61C348.528 87.61 349.238 87.43 349.898 87.07C350.578 86.69 351.118 86.13 351.518 85.39C351.918 84.65 352.118 83.75 352.118 82.69C352.118 81.11 351.698 79.9 350.858 79.06C350.038 78.2 349.028 77.77 347.828 77.77C346.628 77.77 345.618 78.2 344.798 79.06C343.998 79.9 343.598 81.11 343.598 82.69C343.598 84.27 343.988 85.49 344.768 86.35C345.568 87.19 346.568 87.61 347.768 87.61ZM375.209 74.38V91H370.979V88.9C370.439 89.62 369.729 90.19 368.849 90.61C367.989 91.01 367.049 91.21 366.029 91.21C364.729 91.21 363.579 90.94 362.579 90.4C361.579 89.84 360.789 89.03 360.209 87.97C359.649 86.89 359.369 85.61 359.369 84.13V74.38H363.569V83.53C363.569 84.85 363.899 85.87 364.559 86.59C365.219 87.29 366.119 87.64 367.259 87.64C368.419 87.64 369.329 87.29 369.989 86.59C370.649 85.87 370.979 84.85 370.979 83.53V74.38H375.209ZM384.243 77.83V85.87C384.243 86.43 384.373 86.84 384.633 87.1C384.913 87.34 385.373 87.46 386.013 87.46H387.963V91H385.323C381.783 91 380.013 89.28 380.013 85.84V77.83H378.033V74.38H380.013V70.27H384.243V74.38H387.963V77.83H384.243Z" fill="#1FB5BB"/>
<path d="M116.162 125.5V123.42H120.322V138H118.022V125.5H116.162ZM122.734 134.96V133.24L129.454 123.6H132.214V132.98H134.074V134.96H132.214V138H129.974V134.96H122.734ZM130.074 125.92L125.354 132.98H130.074V125.92ZM135.243 134.96V133.24L141.963 123.6H144.723V132.98H146.583V134.96H144.723V138H142.483V134.96H135.243ZM142.583 125.92L137.863 132.98H142.583V125.92ZM148.033 130.52C148.033 128.213 148.419 126.413 149.193 125.12C149.979 123.813 151.326 123.16 153.233 123.16C155.139 123.16 156.479 123.813 157.253 125.12C158.039 126.413 158.433 128.213 158.433 130.52C158.433 132.853 158.039 134.68 157.253 136C156.479 137.307 155.139 137.96 153.233 137.96C151.326 137.96 149.979 137.307 149.193 136C148.419 134.68 148.033 132.853 148.033 130.52ZM156.193 130.52C156.193 129.44 156.119 128.527 155.973 127.78C155.839 127.033 155.559 126.427 155.133 125.96C154.706 125.48 154.073 125.24 153.233 125.24C152.393 125.24 151.759 125.48 151.333 125.96C150.906 126.427 150.619 127.033 150.473 127.78C150.339 128.527 150.273 129.44 150.273 130.52C150.273 131.64 150.339 132.58 150.473 133.34C150.606 134.1 150.886 134.713 151.313 135.18C151.753 135.647 152.393 135.88 153.233 135.88C154.073 135.88 154.706 135.647 155.133 135.18C155.573 134.713 155.859 134.1 155.993 133.34C156.126 132.58 156.193 131.64 156.193 130.52ZM170.18 132.42L173.74 138H171.16L168.78 134.26L166.54 138H164.16L167.72 132.58L164.16 126.98H166.74L169.12 130.72L171.36 126.98H173.74L170.18 132.42ZM179.156 125.5V123.42H183.316V138H181.016V125.5H179.156ZM193.848 126.8C193.702 126.187 193.435 125.727 193.048 125.42C192.662 125.113 192.122 124.96 191.428 124.96C190.375 124.96 189.588 125.367 189.068 126.18C188.548 126.98 188.275 128.313 188.248 130.18C188.595 129.593 189.102 129.14 189.768 128.82C190.435 128.5 191.155 128.34 191.928 128.34C192.808 128.34 193.582 128.533 194.248 128.92C194.928 129.293 195.455 129.84 195.828 130.56C196.215 131.28 196.408 132.14 196.408 133.14C196.408 134.073 196.222 134.907 195.848 135.64C195.488 136.373 194.948 136.953 194.228 137.38C193.508 137.793 192.642 138 191.628 138C190.255 138 189.175 137.7 188.388 137.1C187.615 136.487 187.068 135.627 186.748 134.52C186.442 133.413 186.288 132.033 186.288 130.38C186.288 125.5 188.008 123.06 191.448 123.06C192.782 123.06 193.828 123.42 194.588 124.14C195.362 124.86 195.815 125.747 195.948 126.8H193.848ZM191.428 130.26C190.615 130.26 189.922 130.507 189.348 131C188.788 131.48 188.508 132.18 188.508 133.1C188.508 134.02 188.768 134.753 189.288 135.3C189.822 135.833 190.562 136.1 191.508 136.1C192.348 136.1 193.008 135.84 193.488 135.32C193.982 134.8 194.228 134.107 194.228 133.24C194.228 132.333 193.988 131.613 193.508 131.08C193.042 130.533 192.348 130.26 191.428 130.26ZM198.4 130.52C198.4 128.213 198.787 126.413 199.56 125.12C200.347 123.813 201.694 123.16 203.6 123.16C205.507 123.16 206.847 123.813 207.62 125.12C208.407 126.413 208.8 128.213 208.8 130.52C208.8 132.853 208.407 134.68 207.62 136C206.847 137.307 205.507 137.96 203.6 137.96C201.694 137.96 200.347 137.307 199.56 136C198.787 134.68 198.4 132.853 198.4 130.52ZM206.56 130.52C206.56 129.44 206.487 128.527 206.34 127.78C206.207 127.033 205.927 126.427 205.5 125.96C205.074 125.48 204.44 125.24 203.6 125.24C202.76 125.24 202.127 125.48 201.7 125.96C201.274 126.427 200.987 127.033 200.84 127.78C200.707 128.527 200.64 129.44 200.64 130.52C200.64 131.64 200.707 132.58 200.84 133.34C200.974 134.1 201.254 134.713 201.68 135.18C202.12 135.647 202.76 135.88 203.6 135.88C204.44 135.88 205.074 135.647 205.5 135.18C205.94 134.713 206.227 134.1 206.36 133.34C206.494 132.58 206.56 131.64 206.56 130.52ZM210.773 130.52C210.773 128.213 211.16 126.413 211.933 125.12C212.72 123.813 214.066 123.16 215.973 123.16C217.88 123.16 219.22 123.813 219.993 125.12C220.78 126.413 221.173 128.213 221.173 130.52C221.173 132.853 220.78 134.68 219.993 136C219.22 137.307 217.88 137.96 215.973 137.96C214.066 137.96 212.72 137.307 211.933 136C211.16 134.68 210.773 132.853 210.773 130.52ZM218.933 130.52C218.933 129.44 218.86 128.527 218.713 127.78C218.58 127.033 218.3 126.427 217.873 125.96C217.446 125.48 216.813 125.24 215.973 125.24C215.133 125.24 214.5 125.48 214.073 125.96C213.646 126.427 213.36 127.033 213.213 127.78C213.08 128.527 213.013 129.44 213.013 130.52C213.013 131.64 213.08 132.58 213.213 133.34C213.346 134.1 213.626 134.713 214.053 135.18C214.493 135.647 215.133 135.88 215.973 135.88C216.813 135.88 217.446 135.647 217.873 135.18C218.313 134.713 218.6 134.1 218.733 133.34C218.866 132.58 218.933 131.64 218.933 130.52ZM235.421 138L232.221 132.44H230.481V138H228.201V124.1H233.001C234.067 124.1 234.967 124.287 235.701 124.66C236.447 125.033 237.001 125.533 237.361 126.16C237.734 126.787 237.921 127.487 237.921 128.26C237.921 129.167 237.654 129.993 237.121 130.74C236.601 131.473 235.794 131.973 234.701 132.24L238.141 138H235.421ZM230.481 130.62H233.001C233.854 130.62 234.494 130.407 234.921 129.98C235.361 129.553 235.581 128.98 235.581 128.26C235.581 127.54 235.367 126.98 234.941 126.58C234.514 126.167 233.867 125.96 233.001 125.96H230.481V130.62ZM250.457 128.1C250.097 127.407 249.597 126.887 248.957 126.54C248.317 126.18 247.577 126 246.737 126C245.817 126 244.997 126.207 244.277 126.62C243.557 127.033 242.991 127.62 242.577 128.38C242.177 129.14 241.977 130.02 241.977 131.02C241.977 132.02 242.177 132.907 242.577 133.68C242.991 134.44 243.557 135.027 244.277 135.44C244.997 135.853 245.817 136.06 246.737 136.06C247.977 136.06 248.984 135.713 249.757 135.02C250.531 134.327 251.004 133.387 251.177 132.2H245.957V130.38H253.618V132.16C253.471 133.24 253.084 134.233 252.457 135.14C251.844 136.047 251.037 136.773 250.037 137.32C249.051 137.853 247.951 138.12 246.737 138.12C245.431 138.12 244.237 137.82 243.157 137.22C242.077 136.607 241.217 135.76 240.577 134.68C239.951 133.6 239.637 132.38 239.637 131.02C239.637 129.66 239.951 128.44 240.577 127.36C241.217 126.28 242.077 125.44 243.157 124.84C244.251 124.227 245.444 123.92 246.737 123.92C248.217 123.92 249.531 124.287 250.678 125.02C251.838 125.74 252.678 126.767 253.197 128.1H250.457ZM262.866 130.86C263.613 130.993 264.246 131.387 264.766 132.04C265.286 132.693 265.546 133.433 265.546 134.26C265.546 134.967 265.36 135.607 264.986 136.18C264.626 136.74 264.1 137.187 263.406 137.52C262.713 137.84 261.906 138 260.986 138H255.426V124.1H260.726C261.673 124.1 262.486 124.26 263.166 124.58C263.846 124.9 264.36 125.333 264.706 125.88C265.053 126.413 265.226 127.013 265.226 127.68C265.226 128.48 265.013 129.147 264.586 129.68C264.16 130.213 263.586 130.607 262.866 130.86ZM257.706 129.94H260.526C261.273 129.94 261.853 129.773 262.266 129.44C262.693 129.093 262.906 128.6 262.906 127.96C262.906 127.333 262.693 126.847 262.266 126.5C261.853 126.14 261.273 125.96 260.526 125.96H257.706V129.94ZM260.786 136.14C261.56 136.14 262.166 135.953 262.606 135.58C263.046 135.207 263.266 134.687 263.266 134.02C263.266 133.34 263.033 132.8 262.566 132.4C262.1 132 261.48 131.8 260.706 131.8H257.706V136.14H260.786ZM274.619 136.16H279.319V138H272.339V124.1H274.619V136.16ZM280.026 131.02C280.026 129.66 280.339 128.44 280.966 127.36C281.606 126.28 282.466 125.44 283.546 124.84C284.639 124.227 285.833 123.92 287.126 123.92C288.606 123.92 289.919 124.287 291.066 125.02C292.226 125.74 293.066 126.767 293.586 128.1H290.846C290.486 127.367 289.986 126.82 289.346 126.46C288.706 126.1 287.966 125.92 287.126 125.92C286.206 125.92 285.386 126.127 284.666 126.54C283.946 126.953 283.379 127.547 282.966 128.32C282.566 129.093 282.366 129.993 282.366 131.02C282.366 132.047 282.566 132.947 282.966 133.72C283.379 134.493 283.946 135.093 284.666 135.52C285.386 135.933 286.206 136.14 287.126 136.14C287.966 136.14 288.706 135.96 289.346 135.6C289.986 135.24 290.486 134.693 290.846 133.96H293.586C293.066 135.293 292.226 136.32 291.066 137.04C289.919 137.76 288.606 138.12 287.126 138.12C285.819 138.12 284.626 137.82 283.546 137.22C282.466 136.607 281.606 135.76 280.966 134.68C280.339 133.6 280.026 132.38 280.026 131.02ZM300.355 124.1C301.835 124.1 303.128 124.387 304.235 124.96C305.355 125.52 306.215 126.333 306.815 127.4C307.428 128.453 307.735 129.687 307.735 131.1C307.735 132.513 307.428 133.74 306.815 134.78C306.215 135.82 305.355 136.62 304.235 137.18C303.128 137.727 301.835 138 300.355 138H295.815V124.1H300.355ZM300.355 136.14C301.981 136.14 303.228 135.7 304.095 134.82C304.961 133.94 305.395 132.7 305.395 131.1C305.395 129.487 304.961 128.227 304.095 127.32C303.228 126.413 301.981 125.96 300.355 125.96H298.095V136.14H300.355ZM313.554 138.18C312.688 138.18 311.908 138.027 311.214 137.72C310.534 137.4 309.994 136.973 309.594 136.44C309.194 135.893 308.981 135.287 308.954 134.62H311.314C311.354 135.087 311.574 135.48 311.974 135.8C312.388 136.107 312.901 136.26 313.514 136.26C314.154 136.26 314.648 136.14 314.994 135.9C315.354 135.647 315.534 135.327 315.534 134.94C315.534 134.527 315.334 134.22 314.934 134.02C314.548 133.82 313.928 133.6 313.074 133.36C312.248 133.133 311.574 132.913 311.054 132.7C310.534 132.487 310.081 132.16 309.694 131.72C309.321 131.28 309.134 130.7 309.134 129.98C309.134 129.393 309.308 128.86 309.654 128.38C310.001 127.887 310.494 127.5 311.134 127.22C311.788 126.94 312.534 126.8 313.374 126.8C314.628 126.8 315.634 127.12 316.394 127.76C317.168 128.387 317.581 129.247 317.634 130.34H315.354C315.314 129.847 315.114 129.453 314.754 129.16C314.394 128.867 313.908 128.72 313.294 128.72C312.694 128.72 312.234 128.833 311.914 129.06C311.594 129.287 311.434 129.587 311.434 129.96C311.434 130.253 311.541 130.5 311.754 130.7C311.968 130.9 312.228 131.06 312.534 131.18C312.841 131.287 313.294 131.427 313.894 131.6C314.694 131.813 315.348 132.033 315.854 132.26C316.374 132.473 316.821 132.793 317.194 133.22C317.568 133.647 317.761 134.213 317.774 134.92C317.774 135.547 317.601 136.107 317.254 136.6C316.908 137.093 316.414 137.48 315.774 137.76C315.148 138.04 314.408 138.18 313.554 138.18Z" fill="white"/>
<path d="M641.109 130.38C639.722 129.687 639.029 128.593 639.029 127.1C639.029 126.38 639.209 125.72 639.569 125.12C639.929 124.52 640.469 124.047 641.189 123.7C641.909 123.34 642.789 123.16 643.829 123.16C644.855 123.16 645.729 123.34 646.449 123.7C647.182 124.047 647.729 124.52 648.089 125.12C648.449 125.72 648.629 126.38 648.629 127.1C648.629 127.847 648.435 128.507 648.049 129.08C647.675 129.64 647.175 130.073 646.549 130.38C647.309 130.66 647.909 131.12 648.349 131.76C648.789 132.387 649.009 133.127 649.009 133.98C649.009 134.847 648.789 135.613 648.349 136.28C647.909 136.947 647.295 137.46 646.509 137.82C645.722 138.18 644.829 138.36 643.829 138.36C642.829 138.36 641.935 138.18 641.149 137.82C640.375 137.46 639.769 136.947 639.329 136.28C638.889 135.613 638.669 134.847 638.669 133.98C638.669 133.113 638.889 132.367 639.329 131.74C639.769 131.113 640.362 130.66 641.109 130.38ZM646.449 127.38C646.449 126.633 646.215 126.06 645.749 125.66C645.282 125.26 644.642 125.06 643.829 125.06C643.029 125.06 642.395 125.26 641.929 125.66C641.462 126.06 641.229 126.64 641.229 127.4C641.229 128.067 641.469 128.613 641.949 129.04C642.442 129.453 643.069 129.66 643.829 129.66C644.589 129.66 645.215 129.447 645.709 129.02C646.202 128.593 646.449 128.047 646.449 127.38ZM643.829 131.38C642.949 131.38 642.229 131.6 641.669 132.04C641.122 132.467 640.849 133.087 640.849 133.9C640.849 134.66 641.115 135.28 641.649 135.76C642.182 136.227 642.909 136.46 643.829 136.46C644.735 136.46 645.449 136.22 645.969 135.74C646.502 135.26 646.769 134.647 646.769 133.9C646.769 133.1 646.495 132.48 645.949 132.04C645.415 131.6 644.709 131.38 643.829 131.38ZM650.963 130.52C650.963 128.213 651.349 126.413 652.123 125.12C652.909 123.813 654.256 123.16 656.163 123.16C658.069 123.16 659.409 123.813 660.183 125.12C660.969 126.413 661.363 128.213 661.363 130.52C661.363 132.853 660.969 134.68 660.183 136C659.409 137.307 658.069 137.96 656.163 137.96C654.256 137.96 652.909 137.307 652.123 136C651.349 134.68 650.963 132.853 650.963 130.52ZM659.123 130.52C659.123 129.44 659.049 128.527 658.903 127.78C658.769 127.033 658.489 126.427 658.063 125.96C657.636 125.48 657.003 125.24 656.163 125.24C655.323 125.24 654.689 125.48 654.263 125.96C653.836 126.427 653.549 127.033 653.403 127.78C653.269 128.527 653.203 129.44 653.203 130.52C653.203 131.64 653.269 132.58 653.403 133.34C653.536 134.1 653.816 134.713 654.243 135.18C654.683 135.647 655.323 135.88 656.163 135.88C657.003 135.88 657.636 135.647 658.063 135.18C658.503 134.713 658.789 134.1 658.923 133.34C659.056 132.58 659.123 131.64 659.123 130.52ZM676.85 129.8V131.72H668.63V129.8H676.85ZM683.805 125.5V123.42H687.965V138H685.665V125.5H683.805ZM690.377 134.96V133.24L697.097 123.6H699.857V132.98H701.717V134.96H699.857V138H697.617V134.96H690.377ZM697.717 125.92L692.997 132.98H697.717V125.92ZM702.886 134.96V133.24L709.606 123.6H712.366V132.98H714.226V134.96H712.366V138H710.126V134.96H702.886ZM710.226 125.92L705.506 132.98H710.226V125.92ZM727.076 124.1V138H724.796V131.92H718.256V138H715.976V124.1H718.256V130.06H724.796V124.1H727.076ZM731.657 136.14H736.657V138H729.017V136.14L734.037 128.84H729.017V126.98H736.657V128.84L731.657 136.14Z" fill="white"/>
<path d="M1071.91 138.14C1071.5 138.14 1071.15 138 1070.87 137.72C1070.59 137.44 1070.45 137.093 1070.45 136.68C1070.45 136.267 1070.59 135.92 1070.87 135.64C1071.15 135.36 1071.5 135.22 1071.91 135.22C1072.31 135.22 1072.65 135.36 1072.93 135.64C1073.21 135.92 1073.35 136.267 1073.35 136.68C1073.35 137.093 1073.21 137.44 1072.93 137.72C1072.65 138 1072.31 138.14 1071.91 138.14ZM1075.03 127.02C1075.11 125.78 1075.59 124.813 1076.45 124.12C1077.33 123.427 1078.45 123.08 1079.81 123.08C1080.75 123.08 1081.55 123.247 1082.23 123.58C1082.91 123.913 1083.43 124.367 1083.77 124.94C1084.12 125.513 1084.29 126.16 1084.29 126.88C1084.29 127.707 1084.07 128.413 1083.63 129C1083.19 129.587 1082.67 129.98 1082.05 130.18V130.26C1082.84 130.5 1083.45 130.94 1083.89 131.58C1084.33 132.207 1084.55 133.013 1084.55 134C1084.55 134.787 1084.37 135.487 1084.01 136.1C1083.65 136.713 1083.12 137.2 1082.41 137.56C1081.71 137.907 1080.86 138.08 1079.87 138.08C1078.43 138.08 1077.25 137.713 1076.31 136.98C1075.39 136.233 1074.9 135.167 1074.83 133.78H1077.03C1077.09 134.487 1077.36 135.067 1077.85 135.52C1078.35 135.96 1079.01 136.18 1079.85 136.18C1080.67 136.18 1081.29 135.96 1081.73 135.52C1082.17 135.067 1082.39 134.487 1082.39 133.78C1082.39 132.847 1082.09 132.187 1081.49 131.8C1080.91 131.4 1080 131.2 1078.77 131.2H1078.25V129.32H1078.79C1079.87 129.307 1080.69 129.127 1081.25 128.78C1081.83 128.433 1082.11 127.887 1082.11 127.14C1082.11 126.5 1081.91 125.993 1081.49 125.62C1081.08 125.233 1080.49 125.04 1079.73 125.04C1078.99 125.04 1078.41 125.233 1077.99 125.62C1077.58 125.993 1077.33 126.46 1077.25 127.02H1075.03ZM1086.47 127.02C1086.55 125.78 1087.02 124.813 1087.89 124.12C1088.77 123.427 1089.89 123.08 1091.25 123.08C1092.18 123.08 1092.99 123.247 1093.67 123.58C1094.35 123.913 1094.86 124.367 1095.21 124.94C1095.56 125.513 1095.73 126.16 1095.73 126.88C1095.73 127.707 1095.51 128.413 1095.07 129C1094.63 129.587 1094.1 129.98 1093.49 130.18V130.26C1094.28 130.5 1094.89 130.94 1095.33 131.58C1095.77 132.207 1095.99 133.013 1095.99 134C1095.99 134.787 1095.81 135.487 1095.45 136.1C1095.09 136.713 1094.56 137.2 1093.85 137.56C1093.14 137.907 1092.3 138.08 1091.31 138.08C1089.87 138.08 1088.68 137.713 1087.75 136.98C1086.83 136.233 1086.34 135.167 1086.27 133.78H1088.47C1088.52 134.487 1088.8 135.067 1089.29 135.52C1089.78 135.96 1090.45 136.18 1091.29 136.18C1092.1 136.18 1092.73 135.96 1093.17 135.52C1093.61 135.067 1093.83 134.487 1093.83 133.78C1093.83 132.847 1093.53 132.187 1092.93 131.8C1092.34 131.4 1091.44 131.2 1090.21 131.2H1089.69V129.32H1090.23C1091.31 129.307 1092.13 129.127 1092.69 128.78C1093.26 128.433 1093.55 127.887 1093.55 127.14C1093.55 126.5 1093.34 125.993 1092.93 125.62C1092.52 125.233 1091.93 125.04 1091.17 125.04C1090.42 125.04 1089.84 125.233 1089.43 125.62C1089.02 125.993 1088.77 126.46 1088.69 127.02H1086.47ZM1097.94 130.52C1097.94 128.213 1098.33 126.413 1099.1 125.12C1099.89 123.813 1101.24 123.16 1103.14 123.16C1105.05 123.16 1106.39 123.813 1107.16 125.12C1107.95 126.413 1108.34 128.213 1108.34 130.52C1108.34 132.853 1107.95 134.68 1107.16 136C1106.39 137.307 1105.05 137.96 1103.14 137.96C1101.24 137.96 1099.89 137.307 1099.1 136C1098.33 134.68 1097.94 132.853 1097.94 130.52ZM1106.1 130.52C1106.1 129.44 1106.03 128.527 1105.88 127.78C1105.75 127.033 1105.47 126.427 1105.04 125.96C1104.62 125.48 1103.98 125.24 1103.14 125.24C1102.3 125.24 1101.67 125.48 1101.24 125.96C1100.82 126.427 1100.53 127.033 1100.38 127.78C1100.25 128.527 1100.18 129.44 1100.18 130.52C1100.18 131.64 1100.25 132.58 1100.38 133.34C1100.52 134.1 1100.8 134.713 1101.22 135.18C1101.66 135.647 1102.3 135.88 1103.14 135.88C1103.98 135.88 1104.62 135.647 1105.04 135.18C1105.48 134.713 1105.77 134.1 1105.9 133.34C1106.04 132.58 1106.1 131.64 1106.1 130.52ZM1123.96 126.8C1124.82 126.8 1125.6 126.98 1126.28 127.34C1126.97 127.7 1127.51 128.233 1127.9 128.94C1128.3 129.647 1128.5 130.5 1128.5 131.5V138H1126.24V131.84C1126.24 130.853 1125.99 130.1 1125.5 129.58C1125 129.047 1124.33 128.78 1123.48 128.78C1122.62 128.78 1121.94 129.047 1121.44 129.58C1120.94 130.1 1120.7 130.853 1120.7 131.84V138H1118.44V131.84C1118.44 130.853 1118.19 130.1 1117.7 129.58C1117.2 129.047 1116.53 128.78 1115.68 128.78C1114.82 128.78 1114.14 129.047 1113.64 129.58C1113.14 130.1 1112.9 130.853 1112.9 131.84V138H1110.62V126.98H1112.9V128.24C1113.27 127.787 1113.74 127.433 1114.32 127.18C1114.89 126.927 1115.5 126.8 1116.16 126.8C1117.04 126.8 1117.82 126.987 1118.52 127.36C1119.21 127.733 1119.74 128.273 1120.12 128.98C1120.45 128.313 1120.97 127.787 1121.68 127.4C1122.38 127 1123.14 126.8 1123.96 126.8ZM1134.96 138.18C1134.09 138.18 1133.31 138.027 1132.62 137.72C1131.94 137.4 1131.4 136.973 1131 136.44C1130.6 135.893 1130.38 135.287 1130.36 134.62H1132.72C1132.76 135.087 1132.98 135.48 1133.38 135.8C1133.79 136.107 1134.3 136.26 1134.92 136.26C1135.56 136.26 1136.05 136.14 1136.4 135.9C1136.76 135.647 1136.94 135.327 1136.94 134.94C1136.94 134.527 1136.74 134.22 1136.34 134.02C1135.95 133.82 1135.33 133.6 1134.48 133.36C1133.65 133.133 1132.98 132.913 1132.46 132.7C1131.94 132.487 1131.48 132.16 1131.1 131.72C1130.72 131.28 1130.54 130.7 1130.54 129.98C1130.54 129.393 1130.71 128.86 1131.06 128.38C1131.4 127.887 1131.9 127.5 1132.54 127.22C1133.19 126.94 1133.94 126.8 1134.78 126.8C1136.03 126.8 1137.04 127.12 1137.8 127.76C1138.57 128.387 1138.98 129.247 1139.04 130.34H1136.76C1136.72 129.847 1136.52 129.453 1136.16 129.16C1135.8 128.867 1135.31 128.72 1134.7 128.72C1134.1 128.72 1133.64 128.833 1133.32 129.06C1133 129.287 1132.84 129.587 1132.84 129.96C1132.84 130.253 1132.94 130.5 1133.16 130.7C1133.37 130.9 1133.63 131.06 1133.94 131.18C1134.24 131.287 1134.7 131.427 1135.3 131.6C1136.1 131.813 1136.75 132.033 1137.26 132.26C1137.78 132.473 1138.22 132.793 1138.6 133.22C1138.97 133.647 1139.16 134.213 1139.18 134.92C1139.18 135.547 1139 136.107 1138.66 136.6C1138.31 137.093 1137.82 137.48 1137.18 137.76C1136.55 138.04 1135.81 138.18 1134.96 138.18ZM1149.66 129.8V131.72H1141.44V129.8H1149.66ZM1153.38 138.14C1152.97 138.14 1152.62 138 1152.34 137.72C1152.06 137.44 1151.92 137.093 1151.92 136.68C1151.92 136.267 1152.06 135.92 1152.34 135.64C1152.62 135.36 1152.97 135.22 1153.38 135.22C1153.78 135.22 1154.12 135.36 1154.4 135.64C1154.68 135.92 1154.82 136.267 1154.82 136.68C1154.82 137.093 1154.68 137.44 1154.4 137.72C1154.12 138 1153.78 138.14 1153.38 138.14ZM1165.94 125.38H1159.24V129.36C1159.52 128.987 1159.94 128.673 1160.48 128.42C1161.04 128.167 1161.64 128.04 1162.26 128.04C1163.38 128.04 1164.29 128.28 1164.98 128.76C1165.69 129.24 1166.19 129.847 1166.48 130.58C1166.79 131.313 1166.94 132.087 1166.94 132.9C1166.94 133.887 1166.75 134.767 1166.36 135.54C1165.99 136.3 1165.42 136.9 1164.66 137.34C1163.92 137.78 1163 138 1161.9 138C1160.45 138 1159.28 137.64 1158.4 136.92C1157.52 136.2 1157 135.247 1156.82 134.06H1159.04C1159.19 134.687 1159.52 135.187 1160.02 135.56C1160.53 135.92 1161.16 136.1 1161.92 136.1C1162.87 136.1 1163.58 135.813 1164.04 135.24C1164.52 134.667 1164.76 133.907 1164.76 132.96C1164.76 132 1164.52 131.267 1164.04 130.76C1163.56 130.24 1162.86 129.98 1161.92 129.98C1161.27 129.98 1160.72 130.147 1160.26 130.48C1159.82 130.8 1159.5 131.24 1159.3 131.8H1157.14V123.38H1165.94V125.38ZM1168.84 127.02C1168.92 125.78 1169.39 124.813 1170.26 124.12C1171.14 123.427 1172.26 123.08 1173.62 123.08C1174.55 123.08 1175.36 123.247 1176.04 123.58C1176.72 123.913 1177.23 124.367 1177.58 124.94C1177.92 125.513 1178.1 126.16 1178.1 126.88C1178.1 127.707 1177.88 128.413 1177.44 129C1177 129.587 1176.47 129.98 1175.86 130.18V130.26C1176.64 130.5 1177.26 130.94 1177.7 131.58C1178.14 132.207 1178.36 133.013 1178.36 134C1178.36 134.787 1178.18 135.487 1177.82 136.1C1177.46 136.713 1176.92 137.2 1176.22 137.56C1175.51 137.907 1174.66 138.08 1173.68 138.08C1172.24 138.08 1171.05 137.713 1170.12 136.98C1169.2 136.233 1168.7 135.167 1168.64 133.78H1170.84C1170.89 134.487 1171.16 135.067 1171.66 135.52C1172.15 135.96 1172.82 136.18 1173.66 136.18C1174.47 136.18 1175.1 135.96 1175.54 135.52C1175.98 135.067 1176.2 134.487 1176.2 133.78C1176.2 132.847 1175.9 132.187 1175.3 131.8C1174.71 131.4 1173.8 131.2 1172.58 131.2H1172.06V129.32H1172.6C1173.68 129.307 1174.5 129.127 1175.06 128.78C1175.63 128.433 1175.92 127.887 1175.92 127.14C1175.92 126.5 1175.71 125.993 1175.3 125.62C1174.88 125.233 1174.3 125.04 1173.54 125.04C1172.79 125.04 1172.21 125.233 1171.8 125.62C1171.38 125.993 1171.14 126.46 1171.06 127.02H1168.84ZM1180.31 130.52C1180.31 128.213 1180.7 126.413 1181.47 125.12C1182.26 123.813 1183.61 123.16 1185.51 123.16C1187.42 123.16 1188.76 123.813 1189.53 125.12C1190.32 126.413 1190.71 128.213 1190.71 130.52C1190.71 132.853 1190.32 134.68 1189.53 136C1188.76 137.307 1187.42 137.96 1185.51 137.96C1183.61 137.96 1182.26 137.307 1181.47 136C1180.7 134.68 1180.31 132.853 1180.31 130.52ZM1188.47 130.52C1188.47 129.44 1188.4 128.527 1188.25 127.78C1188.12 127.033 1187.84 126.427 1187.41 125.96C1186.99 125.48 1186.35 125.24 1185.51 125.24C1184.67 125.24 1184.04 125.48 1183.61 125.96C1183.19 126.427 1182.9 127.033 1182.75 127.78C1182.62 128.527 1182.55 129.44 1182.55 130.52C1182.55 131.64 1182.62 132.58 1182.75 133.34C1182.89 134.1 1183.17 134.713 1183.59 135.18C1184.03 135.647 1184.67 135.88 1185.51 135.88C1186.35 135.88 1186.99 135.647 1187.41 135.18C1187.85 134.713 1188.14 134.1 1188.27 133.34C1188.41 132.58 1188.47 131.64 1188.47 130.52ZM1206.33 126.8C1207.19 126.8 1207.97 126.98 1208.65 127.34C1209.34 127.7 1209.88 128.233 1210.27 128.94C1210.67 129.647 1210.87 130.5 1210.87 131.5V138H1208.61V131.84C1208.61 130.853 1208.36 130.1 1207.87 129.58C1207.37 129.047 1206.7 128.78 1205.85 128.78C1204.99 128.78 1204.31 129.047 1203.81 129.58C1203.31 130.1 1203.07 130.853 1203.07 131.84V138H1200.81V131.84C1200.81 130.853 1200.56 130.1 1200.07 129.58C1199.57 129.047 1198.9 128.78 1198.05 128.78C1197.19 128.78 1196.51 129.047 1196.01 129.58C1195.51 130.1 1195.27 130.853 1195.27 131.84V138H1192.99V126.98H1195.27V128.24C1195.64 127.787 1196.11 127.433 1196.69 127.18C1197.26 126.927 1197.87 126.8 1198.53 126.8C1199.41 126.8 1200.19 126.987 1200.89 127.36C1201.58 127.733 1202.11 128.273 1202.49 128.98C1202.82 128.313 1203.34 127.787 1204.05 127.4C1204.75 127 1205.51 126.8 1206.33 126.8ZM1217.33 138.18C1216.46 138.18 1215.68 138.027 1214.99 137.72C1214.31 137.4 1213.77 136.973 1213.37 136.44C1212.97 135.893 1212.75 135.287 1212.73 134.62H1215.09C1215.13 135.087 1215.35 135.48 1215.75 135.8C1216.16 136.107 1216.67 136.26 1217.29 136.26C1217.93 136.26 1218.42 136.14 1218.77 135.9C1219.13 135.647 1219.31 135.327 1219.31 134.94C1219.31 134.527 1219.11 134.22 1218.71 134.02C1218.32 133.82 1217.7 133.6 1216.85 133.36C1216.02 133.133 1215.35 132.913 1214.83 132.7C1214.31 132.487 1213.85 132.16 1213.47 131.72C1213.09 131.28 1212.91 130.7 1212.91 129.98C1212.91 129.393 1213.08 128.86 1213.43 128.38C1213.77 127.887 1214.27 127.5 1214.91 127.22C1215.56 126.94 1216.31 126.8 1217.15 126.8C1218.4 126.8 1219.41 127.12 1220.17 127.76C1220.94 128.387 1221.35 129.247 1221.41 130.34H1219.13C1219.09 129.847 1218.89 129.453 1218.53 129.16C1218.17 128.867 1217.68 128.72 1217.07 128.72C1216.47 128.72 1216.01 128.833 1215.69 129.06C1215.37 129.287 1215.21 129.587 1215.21 129.96C1215.21 130.253 1215.31 130.5 1215.53 130.7C1215.74 130.9 1216 131.06 1216.31 131.18C1216.61 131.287 1217.07 131.427 1217.67 131.6C1218.47 131.813 1219.12 132.033 1219.63 132.26C1220.15 132.473 1220.59 132.793 1220.97 133.22C1221.34 133.647 1221.53 134.213 1221.55 134.92C1221.55 135.547 1221.37 136.107 1221.03 136.6C1220.68 137.093 1220.19 137.48 1219.55 137.76C1218.92 138.04 1218.18 138.18 1217.33 138.18Z" fill="white"/>
<path d="M580.773 70.06V91H576.573V82.09H567.603V91H563.403V70.06H567.603V78.67H576.573V70.06H580.773ZM587.037 72.4C586.297 72.4 585.677 72.17 585.177 71.71C584.697 71.23 584.457 70.64 584.457 69.94C584.457 69.24 584.697 68.66 585.177 68.2C585.677 67.72 586.297 67.48 587.037 67.48C587.777 67.48 588.387 67.72 588.867 68.2C589.367 68.66 589.617 69.24 589.617 69.94C589.617 70.64 589.367 71.23 588.867 71.71C588.387 72.17 587.777 72.4 587.037 72.4ZM589.107 74.38V91H584.907V74.38H589.107ZM599.767 74.11C601.007 74.11 602.097 74.36 603.037 74.86C603.977 75.34 604.717 75.97 605.257 76.75V74.38H609.487V91.12C609.487 92.66 609.177 94.03 608.557 95.23C607.937 96.45 607.007 97.41 605.767 98.11C604.527 98.83 603.027 99.19 601.267 99.19C598.907 99.19 596.967 98.64 595.447 97.54C593.947 96.44 593.097 94.94 592.897 93.04H597.067C597.287 93.8 597.757 94.4 598.477 94.84C599.217 95.3 600.107 95.53 601.147 95.53C602.367 95.53 603.357 95.16 604.117 94.42C604.877 93.7 605.257 92.6 605.257 91.12V88.54C604.717 89.32 603.967 89.97 603.007 90.49C602.067 91.01 600.987 91.27 599.767 91.27C598.367 91.27 597.087 90.91 595.927 90.19C594.767 89.47 593.847 88.46 593.167 87.16C592.507 85.84 592.177 84.33 592.177 82.63C592.177 80.95 592.507 79.46 593.167 78.16C593.847 76.86 594.757 75.86 595.897 75.16C597.057 74.46 598.347 74.11 599.767 74.11ZM605.257 82.69C605.257 81.67 605.057 80.8 604.657 80.08C604.257 79.34 603.717 78.78 603.037 78.4C602.357 78 601.627 77.8 600.847 77.8C600.067 77.8 599.347 77.99 598.687 78.37C598.027 78.75 597.487 79.31 597.067 80.05C596.667 80.77 596.467 81.63 596.467 82.63C596.467 83.63 596.667 84.51 597.067 85.27C597.487 86.01 598.027 86.58 598.687 86.98C599.367 87.38 600.087 87.58 600.847 87.58C601.627 87.58 602.357 87.39 603.037 87.01C603.717 86.61 604.257 86.05 604.657 85.33C605.057 84.59 605.257 83.71 605.257 82.69ZM622.949 74.14C624.209 74.14 625.329 74.42 626.309 74.98C627.289 75.52 628.049 76.33 628.589 77.41C629.149 78.47 629.429 79.75 629.429 81.25V91H625.229V81.82C625.229 80.5 624.899 79.49 624.239 78.79C623.579 78.07 622.679 77.71 621.539 77.71C620.379 77.71 619.459 78.07 618.779 78.79C618.119 79.49 617.789 80.5 617.789 81.82V91H613.589V68.8H617.789V76.45C618.329 75.73 619.049 75.17 619.949 74.77C620.849 74.35 621.849 74.14 622.949 74.14ZM653.501 70.06V73.45H644.771V78.82H651.461V82.15H644.771V91H640.571V70.06H653.501ZM660.679 76.96C661.219 76.08 661.919 75.39 662.779 74.89C663.659 74.39 664.659 74.14 665.779 74.14V78.55H664.669C663.349 78.55 662.349 78.86 661.669 79.48C661.009 80.1 660.679 81.18 660.679 82.72V91H656.479V74.38H660.679V76.96ZM667.528 82.63C667.528 80.95 667.858 79.46 668.518 78.16C669.198 76.86 670.108 75.86 671.248 75.16C672.408 74.46 673.698 74.11 675.118 74.11C676.358 74.11 677.438 74.36 678.358 74.86C679.298 75.36 680.048 75.99 680.608 76.75V74.38H684.838V91H680.608V88.57C680.068 89.35 679.318 90 678.358 90.52C677.418 91.02 676.328 91.27 675.088 91.27C673.688 91.27 672.408 90.91 671.248 90.19C670.108 89.47 669.198 88.46 668.518 87.16C667.858 85.84 667.528 84.33 667.528 82.63ZM680.608 82.69C680.608 81.67 680.408 80.8 680.008 80.08C679.608 79.34 679.068 78.78 678.388 78.4C677.708 78 676.978 77.8 676.198 77.8C675.418 77.8 674.698 77.99 674.038 78.37C673.378 78.75 672.838 79.31 672.418 80.05C672.018 80.77 671.818 81.63 671.818 82.63C671.818 83.63 672.018 84.51 672.418 85.27C672.838 86.01 673.378 86.58 674.038 86.98C674.718 87.38 675.438 87.58 676.198 87.58C676.978 87.58 677.708 87.39 678.388 87.01C679.068 86.61 679.608 86.05 680.008 85.33C680.408 84.59 680.608 83.71 680.608 82.69ZM709.58 74.14C711.62 74.14 713.26 74.77 714.5 76.03C715.76 77.27 716.39 79.01 716.39 81.25V91H712.19V81.82C712.19 80.52 711.86 79.53 711.2 78.85C710.54 78.15 709.64 77.8 708.5 77.8C707.36 77.8 706.45 78.15 705.77 78.85C705.11 79.53 704.78 80.52 704.78 81.82V91H700.58V81.82C700.58 80.52 700.25 79.53 699.59 78.85C698.93 78.15 698.03 77.8 696.89 77.8C695.73 77.8 694.81 78.15 694.13 78.85C693.47 79.53 693.14 80.52 693.14 81.82V91H688.94V74.38H693.14V76.39C693.68 75.69 694.37 75.14 695.21 74.74C696.07 74.34 697.01 74.14 698.03 74.14C699.33 74.14 700.49 74.42 701.51 74.98C702.53 75.52 703.32 76.3 703.88 77.32C704.42 76.36 705.2 75.59 706.22 75.01C707.26 74.43 708.38 74.14 709.58 74.14ZM735.826 82.33C735.826 82.93 735.786 83.47 735.706 83.95H723.556C723.656 85.15 724.076 86.09 724.816 86.77C725.556 87.45 726.466 87.79 727.546 87.79C729.106 87.79 730.216 87.12 730.876 85.78H735.406C734.926 87.38 734.006 88.7 732.646 89.74C731.286 90.76 729.616 91.27 727.636 91.27C726.036 91.27 724.596 90.92 723.316 90.22C722.056 89.5 721.066 88.49 720.346 87.19C719.646 85.89 719.296 84.39 719.296 82.69C719.296 80.97 719.646 79.46 720.346 78.16C721.046 76.86 722.026 75.86 723.286 75.16C724.546 74.46 725.996 74.11 727.636 74.11C729.216 74.11 730.626 74.45 731.866 75.13C733.126 75.81 734.096 76.78 734.776 78.04C735.476 79.28 735.826 80.71 735.826 82.33ZM731.476 81.13C731.456 80.05 731.066 79.19 730.306 78.55C729.546 77.89 728.616 77.56 727.516 77.56C726.476 77.56 725.596 77.88 724.876 78.52C724.176 79.14 723.746 80.01 723.586 81.13H731.476ZM756.84 91L752.22 82.84H750.24V91H746.04V70.06H753.9C755.52 70.06 756.9 70.35 758.04 70.93C759.18 71.49 760.03 72.26 760.59 73.24C761.17 74.2 761.46 75.28 761.46 76.48C761.46 77.86 761.06 79.11 760.26 80.23C759.46 81.33 758.27 82.09 756.69 82.51L761.7 91H756.84ZM750.24 79.69H753.75C754.89 79.69 755.74 79.42 756.3 78.88C756.86 78.32 757.14 77.55 757.14 76.57C757.14 75.61 756.86 74.87 756.3 74.35C755.74 73.81 754.89 73.54 753.75 73.54H750.24V79.69ZM764.178 82.63C764.178 80.95 764.508 79.46 765.168 78.16C765.848 76.86 766.758 75.86 767.898 75.16C769.058 74.46 770.348 74.11 771.768 74.11C773.008 74.11 774.088 74.36 775.008 74.86C775.948 75.36 776.698 75.99 777.258 76.75V74.38H781.488V91H777.258V88.57C776.718 89.35 775.968 90 775.008 90.52C774.068 91.02 772.978 91.27 771.738 91.27C770.338 91.27 769.058 90.91 767.898 90.19C766.758 89.47 765.848 88.46 765.168 87.16C764.508 85.84 764.178 84.33 764.178 82.63ZM777.258 82.69C777.258 81.67 777.058 80.8 776.658 80.08C776.258 79.34 775.718 78.78 775.038 78.4C774.358 78 773.628 77.8 772.848 77.8C772.068 77.8 771.348 77.99 770.688 78.37C770.028 78.75 769.488 79.31 769.068 80.05C768.668 80.77 768.468 81.63 768.468 82.63C768.468 83.63 768.668 84.51 769.068 85.27C769.488 86.01 770.028 86.58 770.688 86.98C771.368 87.38 772.088 87.58 772.848 87.58C773.628 87.58 774.358 87.39 775.038 87.01C775.718 86.61 776.258 86.05 776.658 85.33C777.058 84.59 777.258 83.71 777.258 82.69ZM790.481 77.83V85.87C790.481 86.43 790.611 86.84 790.871 87.1C791.151 87.34 791.611 87.46 792.251 87.46H794.201V91H791.561C788.021 91 786.251 89.28 786.251 85.84V77.83H784.271V74.38H786.251V70.27H790.481V74.38H794.201V77.83H790.481ZM812.671 82.33C812.671 82.93 812.631 83.47 812.551 83.95H800.401C800.501 85.15 800.921 86.09 801.661 86.77C802.401 87.45 803.311 87.79 804.391 87.79C805.951 87.79 807.061 87.12 807.721 85.78H812.251C811.771 87.38 810.851 88.7 809.491 89.74C808.131 90.76 806.461 91.27 804.481 91.27C802.881 91.27 801.441 90.92 800.161 90.22C798.901 89.5 797.911 88.49 797.191 87.19C796.491 85.89 796.141 84.39 796.141 82.69C796.141 80.97 796.491 79.46 797.191 78.16C797.891 76.86 798.871 75.86 800.131 75.16C801.391 74.46 802.841 74.11 804.481 74.11C806.061 74.11 807.471 74.45 808.711 75.13C809.971 75.81 810.941 76.78 811.621 78.04C812.321 79.28 812.671 80.71 812.671 82.33ZM808.321 81.13C808.301 80.05 807.911 79.19 807.151 78.55C806.391 77.89 805.461 77.56 804.361 77.56C803.321 77.56 802.441 77.88 801.721 78.52C801.021 79.14 800.591 80.01 800.431 81.13H808.321Z" fill="#1FB5BB"/>
<path d="M975.271 87.67H982.171V91H971.071V70.06H975.271V87.67ZM992.221 91.27C990.621 91.27 989.181 90.92 987.901 90.22C986.621 89.5 985.611 88.49 984.871 87.19C984.151 85.89 983.791 84.39 983.791 82.69C983.791 80.99 984.161 79.49 984.901 78.19C985.661 76.89 986.691 75.89 987.991 75.19C989.291 74.47 990.741 74.11 992.341 74.11C993.941 74.11 995.391 74.47 996.691 75.19C997.991 75.89 999.011 76.89 999.751 78.19C1000.51 79.49 1000.89 80.99 1000.89 82.69C1000.89 84.39 1000.5 85.89 999.721 87.19C998.961 88.49 997.921 89.5 996.601 90.22C995.301 90.92 993.841 91.27 992.221 91.27ZM992.221 87.61C992.981 87.61 993.691 87.43 994.351 87.07C995.031 86.69 995.571 86.13 995.971 85.39C996.371 84.65 996.571 83.75 996.571 82.69C996.571 81.11 996.151 79.9 995.311 79.06C994.491 78.2 993.481 77.77 992.281 77.77C991.081 77.77 990.071 78.2 989.251 79.06C988.451 79.9 988.051 81.11 988.051 82.69C988.051 84.27 988.441 85.49 989.221 86.35C990.021 87.19 991.021 87.61 992.221 87.61ZM1027.01 74.38L1022.15 91H1017.62L1014.59 79.39L1011.56 91H1007L1002.11 74.38H1006.37L1009.31 87.04L1012.49 74.38H1016.93L1020.05 87.01L1022.99 74.38H1027.01ZM1040.63 70.06V91H1036.43V70.06H1040.63ZM1048.98 68.8V91H1044.78V68.8H1048.98ZM1057.33 68.8V91H1053.13V68.8H1057.33ZM1077.17 74.38V91H1072.94V88.9C1072.4 89.62 1071.69 90.19 1070.81 90.61C1069.95 91.01 1069.01 91.21 1067.99 91.21C1066.69 91.21 1065.54 90.94 1064.54 90.4C1063.54 89.84 1062.75 89.03 1062.17 87.97C1061.61 86.89 1061.33 85.61 1061.33 84.13V74.38H1065.53V83.53C1065.53 84.85 1065.86 85.87 1066.52 86.59C1067.18 87.29 1068.08 87.64 1069.22 87.64C1070.38 87.64 1071.29 87.29 1071.95 86.59C1072.61 85.87 1072.94 84.85 1072.94 83.53V74.38H1077.17ZM1101.96 74.14C1104 74.14 1105.64 74.77 1106.88 76.03C1108.14 77.27 1108.77 79.01 1108.77 81.25V91H1104.57V81.82C1104.57 80.52 1104.24 79.53 1103.58 78.85C1102.92 78.15 1102.02 77.8 1100.88 77.8C1099.74 77.8 1098.83 78.15 1098.15 78.85C1097.49 79.53 1097.16 80.52 1097.16 81.82V91H1092.96V81.82C1092.96 80.52 1092.63 79.53 1091.97 78.85C1091.31 78.15 1090.41 77.8 1089.27 77.8C1088.11 77.8 1087.19 78.15 1086.51 78.85C1085.85 79.53 1085.52 80.52 1085.52 81.82V91H1081.32V74.38H1085.52V76.39C1086.06 75.69 1086.75 75.14 1087.59 74.74C1088.45 74.34 1089.39 74.14 1090.41 74.14C1091.71 74.14 1092.87 74.42 1093.89 74.98C1094.91 75.52 1095.7 76.3 1096.26 77.32C1096.8 76.36 1097.58 75.59 1098.6 75.01C1099.64 74.43 1100.76 74.14 1101.96 74.14ZM1114.88 72.4C1114.14 72.4 1113.52 72.17 1113.02 71.71C1112.54 71.23 1112.3 70.64 1112.3 69.94C1112.3 69.24 1112.54 68.66 1113.02 68.2C1113.52 67.72 1114.14 67.48 1114.88 67.48C1115.62 67.48 1116.23 67.72 1116.71 68.2C1117.21 68.66 1117.46 69.24 1117.46 69.94C1117.46 70.64 1117.21 71.23 1116.71 71.71C1116.23 72.17 1115.62 72.4 1114.88 72.4ZM1116.95 74.38V91H1112.75V74.38H1116.95ZM1130.31 74.14C1132.29 74.14 1133.89 74.77 1135.11 76.03C1136.33 77.27 1136.94 79.01 1136.94 81.25V91H1132.74V81.82C1132.74 80.5 1132.41 79.49 1131.75 78.79C1131.09 78.07 1130.19 77.71 1129.05 77.71C1127.89 77.71 1126.97 78.07 1126.29 78.79C1125.63 79.49 1125.3 80.5 1125.3 81.82V91H1121.1V74.38H1125.3V76.45C1125.86 75.73 1126.57 75.17 1127.43 74.77C1128.31 74.35 1129.27 74.14 1130.31 74.14ZM1139.85 82.63C1139.85 80.95 1140.18 79.46 1140.84 78.16C1141.52 76.86 1142.43 75.86 1143.57 75.16C1144.73 74.46 1146.02 74.11 1147.44 74.11C1148.68 74.11 1149.76 74.36 1150.68 74.86C1151.62 75.36 1152.37 75.99 1152.93 76.75V74.38H1157.16V91H1152.93V88.57C1152.39 89.35 1151.64 90 1150.68 90.52C1149.74 91.02 1148.65 91.27 1147.41 91.27C1146.01 91.27 1144.73 90.91 1143.57 90.19C1142.43 89.47 1141.52 88.46 1140.84 87.16C1140.18 85.84 1139.85 84.33 1139.85 82.63ZM1152.93 82.69C1152.93 81.67 1152.73 80.8 1152.33 80.08C1151.93 79.34 1151.39 78.78 1150.71 78.4C1150.03 78 1149.3 77.8 1148.52 77.8C1147.74 77.8 1147.02 77.99 1146.36 78.37C1145.7 78.75 1145.16 79.31 1144.74 80.05C1144.34 80.77 1144.14 81.63 1144.14 82.63C1144.14 83.63 1144.34 84.51 1144.74 85.27C1145.16 86.01 1145.7 86.58 1146.36 86.98C1147.04 87.38 1147.76 87.58 1148.52 87.58C1149.3 87.58 1150.03 87.39 1150.71 87.01C1151.39 86.61 1151.93 86.05 1152.33 85.33C1152.73 84.59 1152.93 83.71 1152.93 82.69ZM1166.16 77.83V85.87C1166.16 86.43 1166.29 86.84 1166.55 87.1C1166.83 87.34 1167.29 87.46 1167.93 87.46H1169.88V91H1167.24C1163.7 91 1161.93 89.28 1161.93 85.84V77.83H1159.95V74.38H1161.93V70.27H1166.16V74.38H1169.88V77.83H1166.16ZM1175.03 72.4C1174.29 72.4 1173.67 72.17 1173.17 71.71C1172.69 71.23 1172.45 70.64 1172.45 69.94C1172.45 69.24 1172.69 68.66 1173.17 68.2C1173.67 67.72 1174.29 67.48 1175.03 67.48C1175.77 67.48 1176.38 67.72 1176.86 68.2C1177.36 68.66 1177.61 69.24 1177.61 69.94C1177.61 70.64 1177.36 71.23 1176.86 71.71C1176.38 72.17 1175.77 72.4 1175.03 72.4ZM1177.1 74.38V91H1172.9V74.38H1177.1ZM1188.63 91.27C1187.03 91.27 1185.59 90.92 1184.31 90.22C1183.03 89.5 1182.02 88.49 1181.28 87.19C1180.56 85.89 1180.2 84.39 1180.2 82.69C1180.2 80.99 1180.57 79.49 1181.31 78.19C1182.07 76.89 1183.1 75.89 1184.4 75.19C1185.7 74.47 1187.15 74.11 1188.75 74.11C1190.35 74.11 1191.8 74.47 1193.1 75.19C1194.4 75.89 1195.42 76.89 1196.16 78.19C1196.92 79.49 1197.3 80.99 1197.3 82.69C1197.3 84.39 1196.91 85.89 1196.13 87.19C1195.37 88.49 1194.33 89.5 1193.01 90.22C1191.71 90.92 1190.25 91.27 1188.63 91.27ZM1188.63 87.61C1189.39 87.61 1190.1 87.43 1190.76 87.07C1191.44 86.69 1191.98 86.13 1192.38 85.39C1192.78 84.65 1192.98 83.75 1192.98 82.69C1192.98 81.11 1192.56 79.9 1191.72 79.06C1190.9 78.2 1189.89 77.77 1188.69 77.77C1187.49 77.77 1186.48 78.2 1185.66 79.06C1184.86 79.9 1184.46 81.11 1184.46 82.69C1184.46 84.27 1184.85 85.49 1185.63 86.35C1186.43 87.19 1187.43 87.61 1188.63 87.61ZM1209.59 74.14C1211.57 74.14 1213.17 74.77 1214.39 76.03C1215.61 77.27 1216.22 79.01 1216.22 81.25V91H1212.02V81.82C1212.02 80.5 1211.69 79.49 1211.03 78.79C1210.37 78.07 1209.47 77.71 1208.33 77.71C1207.17 77.71 1206.25 78.07 1205.57 78.79C1204.91 79.49 1204.58 80.5 1204.58 81.82V91H1200.38V74.38H1204.58V76.45C1205.14 75.73 1205.85 75.17 1206.71 74.77C1207.59 74.35 1208.55 74.14 1209.59 74.14ZM1242.63 76.54C1242.63 77.66 1242.36 78.71 1241.82 79.69C1241.3 80.67 1240.47 81.46 1239.33 82.06C1238.21 82.66 1236.79 82.96 1235.07 82.96H1231.56V91H1227.36V70.06H1235.07C1236.69 70.06 1238.07 70.34 1239.21 70.9C1240.35 71.46 1241.2 72.23 1241.76 73.21C1242.34 74.19 1242.63 75.3 1242.63 76.54ZM1234.89 79.57C1236.05 79.57 1236.91 79.31 1237.47 78.79C1238.03 78.25 1238.31 77.5 1238.31 76.54C1238.31 74.5 1237.17 73.48 1234.89 73.48H1231.56V79.57H1234.89ZM1261.06 82.33C1261.06 82.93 1261.02 83.47 1260.94 83.95H1248.79C1248.89 85.15 1249.31 86.09 1250.05 86.77C1250.79 87.45 1251.7 87.79 1252.78 87.79C1254.34 87.79 1255.45 87.12 1256.11 85.78H1260.64C1260.16 87.38 1259.24 88.7 1257.88 89.74C1256.52 90.76 1254.85 91.27 1252.87 91.27C1251.27 91.27 1249.83 90.92 1248.55 90.22C1247.29 89.5 1246.3 88.49 1245.58 87.19C1244.88 85.89 1244.53 84.39 1244.53 82.69C1244.53 80.97 1244.88 79.46 1245.58 78.16C1246.28 76.86 1247.26 75.86 1248.52 75.16C1249.78 74.46 1251.23 74.11 1252.87 74.11C1254.45 74.11 1255.86 74.45 1257.1 75.13C1258.36 75.81 1259.33 76.78 1260.01 78.04C1260.71 79.28 1261.06 80.71 1261.06 82.33ZM1256.71 81.13C1256.69 80.05 1256.3 79.19 1255.54 78.55C1254.78 77.89 1253.85 77.56 1252.75 77.56C1251.71 77.56 1250.83 77.88 1250.11 78.52C1249.41 79.14 1248.98 80.01 1248.82 81.13H1256.71ZM1268.33 76.96C1268.87 76.08 1269.57 75.39 1270.43 74.89C1271.31 74.39 1272.31 74.14 1273.43 74.14V78.55H1272.32C1271 78.55 1270 78.86 1269.32 79.48C1268.66 80.1 1268.33 81.18 1268.33 82.72V91H1264.13V74.38H1268.33V76.96ZM1278.39 72.4C1277.65 72.4 1277.03 72.17 1276.53 71.71C1276.05 71.23 1275.81 70.64 1275.81 69.94C1275.81 69.24 1276.05 68.66 1276.53 68.2C1277.03 67.72 1277.65 67.48 1278.39 67.48C1279.13 67.48 1279.74 67.72 1280.22 68.2C1280.72 68.66 1280.97 69.24 1280.97 69.94C1280.97 70.64 1280.72 71.23 1280.22 71.71C1279.74 72.17 1279.13 72.4 1278.39 72.4ZM1280.46 74.38V91H1276.26V74.38H1280.46ZM1291.99 91.27C1290.39 91.27 1288.95 90.92 1287.67 90.22C1286.39 89.5 1285.38 88.49 1284.64 87.19C1283.92 85.89 1283.56 84.39 1283.56 82.69C1283.56 80.99 1283.93 79.49 1284.67 78.19C1285.43 76.89 1286.46 75.89 1287.76 75.19C1289.06 74.47 1290.51 74.11 1292.11 74.11C1293.71 74.11 1295.16 74.47 1296.46 75.19C1297.76 75.89 1298.78 76.89 1299.52 78.19C1300.28 79.49 1300.66 80.99 1300.66 82.69C1300.66 84.39 1300.27 85.89 1299.49 87.19C1298.73 88.49 1297.69 89.5 1296.37 90.22C1295.07 90.92 1293.61 91.27 1291.99 91.27ZM1291.99 87.61C1292.75 87.61 1293.46 87.43 1294.12 87.07C1294.8 86.69 1295.34 86.13 1295.74 85.39C1296.14 84.65 1296.34 83.75 1296.34 82.69C1296.34 81.11 1295.92 79.9 1295.08 79.06C1294.26 78.2 1293.25 77.77 1292.05 77.77C1290.85 77.77 1289.84 78.2 1289.02 79.06C1288.22 79.9 1287.82 81.11 1287.82 82.69C1287.82 84.27 1288.21 85.49 1288.99 86.35C1289.79 87.19 1290.79 87.61 1291.99 87.61ZM1302.66 82.63C1302.66 80.95 1302.99 79.46 1303.65 78.16C1304.33 76.86 1305.25 75.86 1306.41 75.16C1307.57 74.46 1308.86 74.11 1310.28 74.11C1311.36 74.11 1312.39 74.35 1313.37 74.83C1314.35 75.29 1315.13 75.91 1315.71 76.69V68.8H1319.97V91H1315.71V88.54C1315.19 89.36 1314.46 90.02 1313.52 90.52C1312.58 91.02 1311.49 91.27 1310.25 91.27C1308.85 91.27 1307.57 90.91 1306.41 90.19C1305.25 89.47 1304.33 88.46 1303.65 87.16C1302.99 85.84 1302.66 84.33 1302.66 82.63ZM1315.74 82.69C1315.74 81.67 1315.54 80.8 1315.14 80.08C1314.74 79.34 1314.2 78.78 1313.52 78.4C1312.84 78 1312.11 77.8 1311.33 77.8C1310.55 77.8 1309.83 77.99 1309.17 78.37C1308.51 78.75 1307.97 79.31 1307.55 80.05C1307.15 80.77 1306.95 81.63 1306.95 82.63C1306.95 83.63 1307.15 84.51 1307.55 85.27C1307.97 86.01 1308.51 86.58 1309.17 86.98C1309.85 87.38 1310.57 87.58 1311.33 87.58C1312.11 87.58 1312.84 87.39 1313.52 87.01C1314.2 86.61 1314.74 86.05 1315.14 85.33C1315.54 84.59 1315.74 83.71 1315.74 82.69Z" fill="#1FB5BB"/>
<line x1="459.5" y1="53.5" x2="459.5" y2="158.5" stroke="white" stroke-linecap="round"/>
<line x1="914.5" y1="53.5" x2="914.5" y2="158.5" stroke="white" stroke-linecap="round"/>
</svg>
