<svg width="76" height="23" viewBox="0 0 76 23" fill="none" xmlns="http://www.w3.org/2000/svg">
<path d="M11.4432 0.154785C5.43227 0.154785 0.507972 4.76802 0.0400391 10.6307L6.1731 13.1546C6.69276 12.8009 7.32055 12.5936 7.99594 12.5936C8.05647 12.5936 8.11674 12.5957 8.17649 12.599L10.9039 8.66422C10.9039 8.64542 10.9036 8.62714 10.9036 8.6086C10.9036 6.2402 12.8393 4.31334 15.219 4.31334C17.5985 4.31334 19.5342 6.2402 19.5342 8.6086C19.5342 10.977 17.5985 12.9041 15.219 12.9041C15.1862 12.9041 15.1536 12.9034 15.121 12.9026L11.2311 15.6652C11.2332 15.7154 11.235 15.7666 11.235 15.8176C11.235 17.5956 9.78205 19.0415 7.99594 19.0415C6.42814 19.0415 5.11721 17.9278 4.82025 16.4527L0.434252 14.6479C1.79227 19.4285 6.20491 22.9334 11.4432 22.9334C17.763 22.9334 22.886 17.834 22.886 11.5445C22.886 5.25385 17.7628 0.154785 11.4432 0.154785Z" fill="#C5C3C0"/>
<path d="M7.21079 17.4363L5.80518 16.8583C6.05427 17.3745 6.48522 17.8068 7.0574 18.0442C8.29435 18.557 9.7204 17.9729 10.2359 16.7406C10.4855 16.1449 10.4871 15.487 10.2395 14.8897C9.99252 14.2922 9.5264 13.8261 8.92706 13.5774C8.33238 13.331 7.69527 13.3401 7.13551 13.5504L8.58743 14.148C9.49975 14.5265 9.93122 15.5692 9.55097 16.4773C9.1715 17.3856 8.12311 17.815 7.21079 17.4363Z" fill="#C5C3C0"/>
<path d="M18.094 8.60855C18.094 7.03055 16.8043 5.74658 15.2186 5.74658C13.6332 5.74658 12.3433 7.03055 12.3433 8.60855C12.3433 10.1868 13.6332 11.4703 15.2186 11.4703C16.8043 11.47 18.094 10.1865 18.094 8.60855ZM13.0634 8.60366C13.0634 7.41623 14.0306 6.45383 15.2235 6.45383C16.4165 6.45383 17.3837 7.41623 17.3837 8.60366C17.3837 9.79108 16.4165 10.7535 15.2235 10.7535C14.0306 10.7535 13.0634 9.79082 13.0634 8.60366Z" fill="#C5C3C0"/>
<path d="M35.1062 7.94729L34.3395 9.28868C33.749 8.87803 32.9487 8.63086 32.25 8.63086C31.4515 8.63086 30.9574 8.9599 30.9574 9.54923C30.9574 10.2652 31.8351 10.4318 33.1396 10.8978C34.5418 11.3914 35.3478 11.9715 35.3478 13.2498C35.3478 14.9987 33.966 15.9809 31.9799 15.9809C31.012 15.9809 29.8444 15.7322 28.9468 15.1887L29.506 13.7016C30.2352 14.085 31.1074 14.3123 31.885 14.3123C32.9331 14.3123 33.4313 13.9274 33.4313 13.3584C33.4313 12.7073 32.6716 12.5116 31.4453 12.1074C30.0477 11.6429 29.0792 11.0335 29.0792 9.61875C29.0792 8.02325 30.363 7.10693 32.2102 7.10693C33.4976 7.10693 34.5322 7.51295 35.1062 7.94729Z" fill="#C5C3C0"/>
<path d="M41.0999 8.79508V15.8339H39.2946V8.79508H36.6743V7.25391H43.7125V8.79508H41.0999Z" fill="#C5C3C0"/>
<path d="M47.5176 8.79045V10.7237H50.9724V12.2649H47.5176V14.2785H51.526V15.8339H45.7129V7.25391H51.526V8.79045H47.5176Z" fill="#C5C3C0"/>
<path d="M55.5553 14.1683L54.9847 15.8344H53.0923L56.3244 7.25439H58.1415L61.4649 15.8341H59.5086L58.9255 14.1681H55.5553V14.1683ZM57.2227 9.30097L56.0455 12.7363H58.4242L57.2227 9.30097Z" fill="#C5C3C0"/>
<path d="M70.7299 10.5703L68.3708 15.5839H67.3522L65.0314 10.6151V15.8339H63.3027V7.25391H65.0275L67.9246 13.4475L70.7188 7.25391H72.4586V15.8339H70.7302L70.7299 10.5703Z" fill="#C5C3C0"/>
<path d="M75.9486 8.33667C75.9486 9.07404 75.3935 9.53362 74.7564 9.53362C74.1169 9.53362 73.5605 9.07404 73.5605 8.33667C73.5605 7.59955 74.1169 7.14307 74.7564 7.14307C75.3937 7.14307 75.9486 7.59955 75.9486 8.33667ZM73.761 8.33667C73.761 8.95355 74.2075 9.34103 74.7564 9.34103C75.3032 9.34103 75.7479 8.95355 75.7479 8.33667C75.7479 7.71798 75.3032 7.33642 74.7564 7.33642C74.209 7.33642 73.761 7.72262 73.761 8.33667ZM74.7729 7.72674C75.082 7.72674 75.186 7.88945 75.186 8.0653C75.186 8.22647 75.0901 8.33461 74.9731 8.38971L75.2502 8.90643H75.0233L74.7897 8.44841H74.5489V8.90643H74.3601V7.72674H74.7729ZM74.5507 8.27565H74.7613C74.8976 8.27565 74.9781 8.19043 74.9781 8.08332C74.9781 7.97519 74.9204 7.90567 74.7608 7.90567H74.5505V8.27565H74.5507Z" fill="#C5C3C0"/>
</svg>
