<svg width="1436" height="226" viewBox="0 0 1436 226" fill="none" xmlns="http://www.w3.org/2000/svg">
<rect width="1440" height="226" fill="url(#paint0_linear_184_172)"/>
<path d="M125.76 94.67H132.66V98H121.56V77.06H125.76V94.67ZM142.71 98.27C141.11 98.27 139.67 97.92 138.39 97.22C137.11 96.5 136.1 95.49 135.36 94.19C134.64 92.89 134.28 91.39 134.28 89.69C134.28 87.99 134.65 86.49 135.39 85.19C136.15 83.89 137.18 82.89 138.48 82.19C139.78 81.47 141.23 81.11 142.83 81.11C144.43 81.11 145.88 81.47 147.18 82.19C148.48 82.89 149.5 83.89 150.24 85.19C151 86.49 151.38 87.99 151.38 89.69C151.38 91.39 150.99 92.89 150.21 94.19C149.45 95.49 148.41 96.5 147.09 97.22C145.79 97.92 144.33 98.27 142.71 98.27ZM142.71 94.61C143.47 94.61 144.18 94.43 144.84 94.07C145.52 93.69 146.06 93.13 146.46 92.39C146.86 91.65 147.06 90.75 147.06 89.69C147.06 88.11 146.64 86.9 145.8 86.06C144.98 85.2 143.97 84.77 142.77 84.77C141.57 84.77 140.56 85.2 139.74 86.06C138.94 86.9 138.54 88.11 138.54 89.69C138.54 91.27 138.93 92.49 139.71 93.35C140.51 94.19 141.51 94.61 142.71 94.61ZM163.671 81.14C165.651 81.14 167.251 81.77 168.471 83.03C169.691 84.27 170.301 86.01 170.301 88.25V98H166.101V88.82C166.101 87.5 165.771 86.49 165.111 85.79C164.451 85.07 163.551 84.71 162.411 84.71C161.251 84.71 160.331 85.07 159.651 85.79C158.991 86.49 158.661 87.5 158.661 88.82V98H154.461V81.38H158.661V83.45C159.221 82.73 159.931 82.17 160.791 81.77C161.671 81.35 162.631 81.14 163.671 81.14ZM180.805 81.11C182.045 81.11 183.135 81.36 184.075 81.86C185.015 82.34 185.755 82.97 186.295 83.75V81.38H190.525V98.12C190.525 99.66 190.215 101.03 189.595 102.23C188.975 103.45 188.045 104.41 186.805 105.11C185.565 105.83 184.065 106.19 182.305 106.19C179.945 106.19 178.005 105.64 176.485 104.54C174.985 103.44 174.135 101.94 173.935 100.04H178.105C178.325 100.8 178.795 101.4 179.515 101.84C180.255 102.3 181.145 102.53 182.185 102.53C183.405 102.53 184.395 102.16 185.155 101.42C185.915 100.7 186.295 99.6 186.295 98.12V95.54C185.755 96.32 185.005 96.97 184.045 97.49C183.105 98.01 182.025 98.27 180.805 98.27C179.405 98.27 178.125 97.91 176.965 97.19C175.805 96.47 174.885 95.46 174.205 94.16C173.545 92.84 173.215 91.33 173.215 89.63C173.215 87.95 173.545 86.46 174.205 85.16C174.885 83.86 175.795 82.86 176.935 82.16C178.095 81.46 179.385 81.11 180.805 81.11ZM186.295 89.69C186.295 88.67 186.095 87.8 185.695 87.08C185.295 86.34 184.755 85.78 184.075 85.4C183.395 85 182.665 84.8 181.885 84.8C181.105 84.8 180.385 84.99 179.725 85.37C179.065 85.75 178.525 86.31 178.105 87.05C177.705 87.77 177.505 88.63 177.505 89.63C177.505 90.63 177.705 91.51 178.105 92.27C178.525 93.01 179.065 93.58 179.725 93.98C180.405 94.38 181.125 94.58 181.885 94.58C182.665 94.58 183.395 94.39 184.075 94.01C184.755 93.61 185.295 93.05 185.695 92.33C186.095 91.59 186.295 90.71 186.295 89.69ZM213.655 87.26C214.835 87.48 215.805 88.07 216.565 89.03C217.325 89.99 217.705 91.09 217.705 92.33C217.705 93.45 217.425 94.44 216.865 95.3C216.325 96.14 215.535 96.8 214.495 97.28C213.455 97.76 212.225 98 210.805 98H201.775V77.06H210.415C211.835 77.06 213.055 77.29 214.075 77.75C215.115 78.21 215.895 78.85 216.415 79.67C216.955 80.49 217.225 81.42 217.225 82.46C217.225 83.68 216.895 84.7 216.235 85.52C215.595 86.34 214.735 86.92 213.655 87.26ZM205.975 85.7H209.815C210.815 85.7 211.585 85.48 212.125 85.04C212.665 84.58 212.935 83.93 212.935 83.09C212.935 82.25 212.665 81.6 212.125 81.14C211.585 80.68 210.815 80.45 209.815 80.45H205.975V85.7ZM210.205 94.58C211.225 94.58 212.015 94.34 212.575 93.86C213.155 93.38 213.445 92.7 213.445 91.82C213.445 90.92 213.145 90.22 212.545 89.72C211.945 89.2 211.135 88.94 210.115 88.94H205.975V94.58H210.205ZM219.972 89.63C219.972 87.95 220.302 86.46 220.962 85.16C221.642 83.86 222.552 82.86 223.692 82.16C224.852 81.46 226.142 81.11 227.562 81.11C228.802 81.11 229.882 81.36 230.802 81.86C231.742 82.36 232.492 82.99 233.052 83.75V81.38H237.282V98H233.052V95.57C232.512 96.35 231.762 97 230.802 97.52C229.862 98.02 228.772 98.27 227.532 98.27C226.132 98.27 224.852 97.91 223.692 97.19C222.552 96.47 221.642 95.46 220.962 94.16C220.302 92.84 219.972 91.33 219.972 89.63ZM233.052 89.69C233.052 88.67 232.852 87.8 232.452 87.08C232.052 86.34 231.512 85.78 230.832 85.4C230.152 85 229.422 84.8 228.642 84.8C227.862 84.8 227.142 84.99 226.482 85.37C225.822 85.75 225.282 86.31 224.862 87.05C224.462 87.77 224.262 88.63 224.262 89.63C224.262 90.63 224.462 91.51 224.862 92.27C225.282 93.01 225.822 93.58 226.482 93.98C227.162 94.38 227.882 94.58 228.642 94.58C229.422 94.58 230.152 94.39 230.832 94.01C231.512 93.61 232.052 93.05 232.452 92.33C232.852 91.59 233.052 90.71 233.052 89.69ZM246.274 84.83V92.87C246.274 93.43 246.404 93.84 246.664 94.1C246.944 94.34 247.404 94.46 248.044 94.46H249.994V98H247.354C243.814 98 242.044 96.28 242.044 92.84V84.83H240.064V81.38H242.044V77.27H246.274V81.38H249.994V84.83H246.274ZM257.905 84.83V92.87C257.905 93.43 258.035 93.84 258.295 94.1C258.575 94.34 259.035 94.46 259.675 94.46H261.625V98H258.985C255.445 98 253.675 96.28 253.675 92.84V84.83H251.695V81.38H253.675V77.27H257.905V81.38H261.625V84.83H257.905ZM280.096 89.33C280.096 89.93 280.056 90.47 279.976 90.95H267.826C267.926 92.15 268.346 93.09 269.086 93.77C269.826 94.45 270.736 94.79 271.816 94.79C273.376 94.79 274.486 94.12 275.146 92.78H279.676C279.196 94.38 278.276 95.7 276.916 96.74C275.556 97.76 273.886 98.27 271.906 98.27C270.306 98.27 268.866 97.92 267.586 97.22C266.326 96.5 265.336 95.49 264.616 94.19C263.916 92.89 263.566 91.39 263.566 89.69C263.566 87.97 263.916 86.46 264.616 85.16C265.316 83.86 266.296 82.86 267.556 82.16C268.816 81.46 270.266 81.11 271.906 81.11C273.486 81.11 274.896 81.45 276.136 82.13C277.396 82.81 278.366 83.78 279.046 85.04C279.746 86.28 280.096 87.71 280.096 89.33ZM275.746 88.13C275.726 87.05 275.336 86.19 274.576 85.55C273.816 84.89 272.886 84.56 271.786 84.56C270.746 84.56 269.866 84.88 269.146 85.52C268.446 86.14 268.016 87.01 267.856 88.13H275.746ZM287.362 83.96C287.902 83.08 288.602 82.39 289.462 81.89C290.342 81.39 291.342 81.14 292.462 81.14V85.55H291.352C290.032 85.55 289.032 85.86 288.352 86.48C287.692 87.1 287.362 88.18 287.362 89.72V98H283.162V81.38H287.362V83.96ZM311.191 81.38L300.901 105.86H296.431L300.031 97.58L293.371 81.38H298.081L302.371 92.99L306.721 81.38H311.191ZM324.803 94.67H331.703V98H320.603V77.06H324.803V94.67ZM336.503 79.4C335.763 79.4 335.143 79.17 334.643 78.71C334.163 78.23 333.923 77.64 333.923 76.94C333.923 76.24 334.163 75.66 334.643 75.2C335.143 74.72 335.763 74.48 336.503 74.48C337.243 74.48 337.853 74.72 338.333 75.2C338.833 75.66 339.083 76.24 339.083 76.94C339.083 77.64 338.833 78.23 338.333 78.71C337.853 79.17 337.243 79.4 336.503 79.4ZM338.573 81.38V98H334.373V81.38H338.573ZM350.342 84.83H347.432V98H343.172V84.83H341.282V81.38H343.172V80.54C343.172 78.5 343.752 77 344.912 76.04C346.072 75.08 347.822 74.63 350.162 74.69V78.23C349.142 78.21 348.432 78.38 348.032 78.74C347.632 79.1 347.432 79.75 347.432 80.69V81.38H350.342V84.83ZM368.514 89.33C368.514 89.93 368.474 90.47 368.394 90.95H356.244C356.344 92.15 356.764 93.09 357.504 93.77C358.244 94.45 359.154 94.79 360.234 94.79C361.794 94.79 362.904 94.12 363.564 92.78H368.094C367.614 94.38 366.694 95.7 365.334 96.74C363.974 97.76 362.304 98.27 360.324 98.27C358.724 98.27 357.284 97.92 356.004 97.22C354.744 96.5 353.754 95.49 353.034 94.19C352.334 92.89 351.984 91.39 351.984 89.69C351.984 87.97 352.334 86.46 353.034 85.16C353.734 83.86 354.714 82.86 355.974 82.16C357.234 81.46 358.684 81.11 360.324 81.11C361.904 81.11 363.314 81.45 364.554 82.13C365.814 82.81 366.784 83.78 367.464 85.04C368.164 86.28 368.514 87.71 368.514 89.33ZM364.164 88.13C364.144 87.05 363.754 86.19 362.994 85.55C362.234 84.89 361.304 84.56 360.204 84.56C359.164 84.56 358.284 84.88 357.564 85.52C356.864 86.14 356.434 87.01 356.274 88.13H364.164Z" fill="#1FB5BB"/>
<path d="M124.473 130.352L117.801 146H115.593L122.361 130.568H113.097V128.696H124.473V130.352ZM139.734 138.152H134.622V143.336H132.582V138.152H127.494V136.304H132.582V131.096H134.622V136.304H139.734V138.152ZM156.564 132.608C157.556 132.608 158.452 132.824 159.252 133.256C160.052 133.672 160.676 134.304 161.124 135.152C161.588 136 161.82 137.032 161.82 138.248V146H159.66V138.56C159.66 137.248 159.332 136.248 158.676 135.56C158.02 134.856 157.124 134.504 155.988 134.504C154.836 134.504 153.916 134.864 153.228 135.584C152.556 136.304 152.22 137.352 152.22 138.728V146H150.036V128.24H152.22V134.72C152.652 134.048 153.244 133.528 153.996 133.16C154.764 132.792 155.62 132.608 156.564 132.608ZM171.123 146.216C169.891 146.216 168.771 145.936 167.763 145.376C166.771 144.816 165.987 144.024 165.411 143C164.851 141.96 164.571 140.76 164.571 139.4C164.571 138.056 164.859 136.872 165.435 135.848C166.027 134.808 166.827 134.016 167.835 133.472C168.843 132.912 169.971 132.632 171.219 132.632C172.467 132.632 173.595 132.912 174.603 133.472C175.611 134.016 176.403 134.8 176.979 135.824C177.571 136.848 177.867 138.04 177.867 139.4C177.867 140.76 177.563 141.96 176.955 143C176.363 144.024 175.555 144.816 174.531 145.376C173.507 145.936 172.371 146.216 171.123 146.216ZM171.123 144.296C171.907 144.296 172.643 144.112 173.331 143.744C174.019 143.376 174.571 142.824 174.987 142.088C175.419 141.352 175.635 140.456 175.635 139.4C175.635 138.344 175.427 137.448 175.011 136.712C174.595 135.976 174.051 135.432 173.379 135.08C172.707 134.712 171.979 134.528 171.195 134.528C170.395 134.528 169.659 134.712 168.987 135.08C168.331 135.432 167.803 135.976 167.403 136.712C167.003 137.448 166.803 138.344 166.803 139.4C166.803 140.472 166.995 141.376 167.379 142.112C167.779 142.848 168.307 143.4 168.963 143.768C169.619 144.12 170.339 144.296 171.123 144.296ZM192.403 132.848V146H190.219V144.056C189.803 144.728 189.219 145.256 188.467 145.64C187.731 146.008 186.915 146.192 186.019 146.192C184.995 146.192 184.075 145.984 183.259 145.568C182.443 145.136 181.795 144.496 181.315 143.648C180.851 142.8 180.619 141.768 180.619 140.552V132.848H182.779V140.264C182.779 141.56 183.107 142.56 183.763 143.264C184.419 143.952 185.315 144.296 186.451 144.296C187.619 144.296 188.539 143.936 189.211 143.216C189.883 142.496 190.219 141.448 190.219 140.072V132.848H192.403ZM198.274 134.984C198.658 134.232 199.202 133.648 199.906 133.232C200.626 132.816 201.498 132.608 202.522 132.608V134.864H201.946C199.498 134.864 198.274 136.192 198.274 138.848V146H196.09V132.848H198.274V134.984ZM209.699 146.216C208.691 146.216 207.787 146.048 206.987 145.712C206.187 145.36 205.555 144.88 205.091 144.272C204.627 143.648 204.371 142.936 204.323 142.136H206.579C206.643 142.792 206.947 143.328 207.491 143.744C208.051 144.16 208.779 144.368 209.675 144.368C210.507 144.368 211.163 144.184 211.643 143.816C212.123 143.448 212.363 142.984 212.363 142.424C212.363 141.848 212.107 141.424 211.595 141.152C211.083 140.864 210.291 140.584 209.219 140.312C208.243 140.056 207.443 139.8 206.819 139.544C206.211 139.272 205.683 138.88 205.235 138.368C204.803 137.84 204.587 137.152 204.587 136.304C204.587 135.632 204.787 135.016 205.187 134.456C205.587 133.896 206.155 133.456 206.891 133.136C207.627 132.8 208.467 132.632 209.411 132.632C210.867 132.632 212.043 133 212.939 133.736C213.835 134.472 214.315 135.48 214.379 136.76H212.195C212.147 136.072 211.867 135.52 211.355 135.104C210.859 134.688 210.187 134.48 209.339 134.48C208.555 134.48 207.931 134.648 207.467 134.984C207.003 135.32 206.771 135.76 206.771 136.304C206.771 136.736 206.907 137.096 207.179 137.384C207.467 137.656 207.819 137.88 208.235 138.056C208.667 138.216 209.259 138.4 210.011 138.608C210.955 138.864 211.723 139.12 212.315 139.376C212.907 139.616 213.411 139.984 213.827 140.48C214.259 140.976 214.483 141.624 214.499 142.424C214.499 143.144 214.299 143.792 213.899 144.368C213.499 144.944 212.931 145.4 212.195 145.736C211.475 146.056 210.643 146.216 209.699 146.216ZM229.717 146.216C228.485 146.216 227.365 145.936 226.357 145.376C225.365 144.816 224.581 144.024 224.005 143C223.445 141.96 223.165 140.76 223.165 139.4C223.165 138.056 223.453 136.872 224.029 135.848C224.621 134.808 225.421 134.016 226.429 133.472C227.437 132.912 228.565 132.632 229.813 132.632C231.061 132.632 232.189 132.912 233.197 133.472C234.205 134.016 234.997 134.8 235.573 135.824C236.165 136.848 236.461 138.04 236.461 139.4C236.461 140.76 236.157 141.96 235.549 143C234.957 144.024 234.149 144.816 233.125 145.376C232.101 145.936 230.965 146.216 229.717 146.216ZM229.717 144.296C230.501 144.296 231.237 144.112 231.925 143.744C232.613 143.376 233.165 142.824 233.581 142.088C234.013 141.352 234.229 140.456 234.229 139.4C234.229 138.344 234.021 137.448 233.605 136.712C233.189 135.976 232.645 135.432 231.973 135.08C231.301 134.712 230.573 134.528 229.789 134.528C228.989 134.528 228.253 134.712 227.581 135.08C226.925 135.432 226.397 135.976 225.997 136.712C225.597 137.448 225.397 138.344 225.397 139.4C225.397 140.472 225.589 141.376 225.973 142.112C226.373 142.848 226.901 143.4 227.557 143.768C228.213 144.12 228.933 144.296 229.717 144.296ZM244.684 134.648H241.924V146H239.74V134.648H238.036V132.848H239.74V131.912C239.74 130.44 240.116 129.368 240.868 128.696C241.636 128.008 242.86 127.664 244.54 127.664V129.488C243.58 129.488 242.9 129.68 242.5 130.064C242.116 130.432 241.924 131.048 241.924 131.912V132.848H244.684V134.648ZM259.053 132.632C260.189 132.632 261.181 132.88 262.029 133.376C262.893 133.872 263.533 134.496 263.949 135.248V132.848H266.157V146.288C266.157 147.488 265.901 148.552 265.389 149.48C264.877 150.424 264.141 151.16 263.181 151.688C262.237 152.216 261.133 152.48 259.869 152.48C258.141 152.48 256.701 152.072 255.549 151.256C254.397 150.44 253.717 149.328 253.509 147.92H255.669C255.909 148.72 256.405 149.36 257.157 149.84C257.909 150.336 258.813 150.584 259.869 150.584C261.069 150.584 262.045 150.208 262.797 149.456C263.565 148.704 263.949 147.648 263.949 146.288V143.528C263.517 144.296 262.877 144.936 262.029 145.448C261.181 145.96 260.189 146.216 259.053 146.216C257.885 146.216 256.821 145.928 255.861 145.352C254.917 144.776 254.173 143.968 253.629 142.928C253.085 141.888 252.813 140.704 252.813 139.376C252.813 138.032 253.085 136.856 253.629 135.848C254.173 134.824 254.917 134.032 255.861 133.472C256.821 132.912 257.885 132.632 259.053 132.632ZM263.949 139.4C263.949 138.408 263.749 137.544 263.349 136.808C262.949 136.072 262.405 135.512 261.717 135.128C261.045 134.728 260.301 134.528 259.485 134.528C258.669 134.528 257.925 134.72 257.253 135.104C256.581 135.488 256.045 136.048 255.645 136.784C255.245 137.52 255.045 138.384 255.045 139.376C255.045 140.384 255.245 141.264 255.645 142.016C256.045 142.752 256.581 143.32 257.253 143.72C257.925 144.104 258.669 144.296 259.485 144.296C260.301 144.296 261.045 144.104 261.717 143.72C262.405 143.32 262.949 142.752 263.349 142.016C263.749 141.264 263.949 140.392 263.949 139.4ZM269.032 139.376C269.032 138.032 269.304 136.856 269.848 135.848C270.392 134.824 271.136 134.032 272.08 133.472C273.04 132.912 274.104 132.632 275.272 132.632C276.424 132.632 277.424 132.88 278.272 133.376C279.12 133.872 279.752 134.496 280.168 135.248V132.848H282.376V146H280.168V143.552C279.736 144.32 279.088 144.96 278.224 145.472C277.376 145.968 276.384 146.216 275.248 146.216C274.08 146.216 273.024 145.928 272.08 145.352C271.136 144.776 270.392 143.968 269.848 142.928C269.304 141.888 269.032 140.704 269.032 139.376ZM280.168 139.4C280.168 138.408 279.968 137.544 279.568 136.808C279.168 136.072 278.624 135.512 277.936 135.128C277.264 134.728 276.52 134.528 275.704 134.528C274.888 134.528 274.144 134.72 273.472 135.104C272.8 135.488 272.264 136.048 271.864 136.784C271.464 137.52 271.264 138.384 271.264 139.376C271.264 140.384 271.464 141.264 271.864 142.016C272.264 142.752 272.8 143.32 273.472 143.72C274.144 144.104 274.888 144.296 275.704 144.296C276.52 144.296 277.264 144.104 277.936 143.72C278.624 143.32 279.168 142.752 279.568 142.016C279.968 141.264 280.168 140.392 280.168 139.4ZM301.883 132.608C302.907 132.608 303.819 132.824 304.619 133.256C305.419 133.672 306.051 134.304 306.515 135.152C306.979 136 307.211 137.032 307.211 138.248V146H305.051V138.56C305.051 137.248 304.723 136.248 304.067 135.56C303.427 134.856 302.555 134.504 301.451 134.504C300.315 134.504 299.411 134.872 298.739 135.608C298.067 136.328 297.731 137.376 297.731 138.752V146H295.571V138.56C295.571 137.248 295.243 136.248 294.587 135.56C293.947 134.856 293.075 134.504 291.971 134.504C290.835 134.504 289.931 134.872 289.259 135.608C288.587 136.328 288.251 137.376 288.251 138.752V146H286.067V132.848H288.251V134.744C288.683 134.056 289.259 133.528 289.979 133.16C290.715 132.792 291.523 132.608 292.403 132.608C293.507 132.608 294.483 132.856 295.331 133.352C296.179 133.848 296.811 134.576 297.227 135.536C297.595 134.608 298.203 133.888 299.051 133.376C299.899 132.864 300.843 132.608 301.883 132.608ZM322.793 138.92C322.793 139.336 322.769 139.776 322.721 140.24H312.209C312.289 141.536 312.729 142.552 313.529 143.288C314.345 144.008 315.329 144.368 316.481 144.368C317.425 144.368 318.209 144.152 318.833 143.72C319.473 143.272 319.921 142.68 320.177 141.944H322.529C322.177 143.208 321.473 144.24 320.417 145.04C319.361 145.824 318.049 146.216 316.481 146.216C315.233 146.216 314.113 145.936 313.121 145.376C312.145 144.816 311.377 144.024 310.817 143C310.257 141.96 309.977 140.76 309.977 139.4C309.977 138.04 310.249 136.848 310.793 135.824C311.337 134.8 312.097 134.016 313.073 133.472C314.065 132.912 315.201 132.632 316.481 132.632C317.729 132.632 318.833 132.904 319.793 133.448C320.753 133.992 321.489 134.744 322.001 135.704C322.529 136.648 322.793 137.72 322.793 138.92ZM320.537 138.464C320.537 137.632 320.353 136.92 319.985 136.328C319.617 135.72 319.113 135.264 318.473 134.96C317.849 134.64 317.153 134.48 316.385 134.48C315.281 134.48 314.337 134.832 313.553 135.536C312.785 136.24 312.345 137.216 312.233 138.464H320.537ZM327.86 135.272C328.292 134.52 328.932 133.896 329.78 133.4C330.644 132.888 331.644 132.632 332.78 132.632C333.948 132.632 335.004 132.912 335.948 133.472C336.908 134.032 337.66 134.824 338.204 135.848C338.748 136.856 339.02 138.032 339.02 139.376C339.02 140.704 338.748 141.888 338.204 142.928C337.66 143.968 336.908 144.776 335.948 145.352C335.004 145.928 333.948 146.216 332.78 146.216C331.66 146.216 330.668 145.968 329.804 145.472C328.956 144.96 328.308 144.328 327.86 143.576V152.24H325.676V132.848H327.86V135.272ZM336.788 139.376C336.788 138.384 336.588 137.52 336.188 136.784C335.788 136.048 335.244 135.488 334.556 135.104C333.884 134.72 333.14 134.528 332.324 134.528C331.524 134.528 330.78 134.728 330.092 135.128C329.42 135.512 328.876 136.08 328.46 136.832C328.06 137.568 327.86 138.424 327.86 139.4C327.86 140.392 328.06 141.264 328.46 142.016C328.876 142.752 329.42 143.32 330.092 143.72C330.78 144.104 331.524 144.296 332.324 144.296C333.14 144.296 333.884 144.104 334.556 143.72C335.244 143.32 335.788 142.752 336.188 142.016C336.588 141.264 336.788 140.384 336.788 139.376ZM344.079 128.24V146H341.895V128.24H344.079ZM346.985 139.376C346.985 138.032 347.257 136.856 347.801 135.848C348.345 134.824 349.089 134.032 350.033 133.472C350.993 132.912 352.057 132.632 353.225 132.632C354.377 132.632 355.377 132.88 356.225 133.376C357.073 133.872 357.705 134.496 358.121 135.248V132.848H360.329V146H358.121V143.552C357.689 144.32 357.041 144.96 356.177 145.472C355.329 145.968 354.337 146.216 353.201 146.216C352.033 146.216 350.977 145.928 350.033 145.352C349.089 144.776 348.345 143.968 347.801 142.928C347.257 141.888 346.985 140.704 346.985 139.376ZM358.121 139.4C358.121 138.408 357.921 137.544 357.521 136.808C357.121 136.072 356.577 135.512 355.889 135.128C355.217 134.728 354.473 134.528 353.657 134.528C352.841 134.528 352.097 134.72 351.425 135.104C350.753 135.488 350.217 136.048 349.817 136.784C349.417 137.52 349.217 138.384 349.217 139.376C349.217 140.384 349.417 141.264 349.817 142.016C350.217 142.752 350.753 143.32 351.425 143.72C352.097 144.104 352.841 144.296 353.657 144.296C354.473 144.296 355.217 144.104 355.889 143.72C356.577 143.32 357.121 142.752 357.521 142.016C357.921 141.264 358.121 140.392 358.121 139.4ZM375.348 132.848L367.428 152.192H365.172L367.764 145.856L362.46 132.848H364.884L369.012 143.504L373.092 132.848H375.348Z" fill="white"/>
<path d="M593.507 146.168C592.403 146.168 591.411 145.976 590.531 145.592C589.667 145.192 588.987 144.648 588.491 143.96C587.995 143.256 587.739 142.448 587.723 141.536H590.051C590.131 142.32 590.451 142.984 591.011 143.528C591.587 144.056 592.419 144.32 593.507 144.32C594.547 144.32 595.363 144.064 595.955 143.552C596.563 143.024 596.867 142.352 596.867 141.536C596.867 140.896 596.691 140.376 596.339 139.976C595.987 139.576 595.547 139.272 595.019 139.064C594.491 138.856 593.779 138.632 592.883 138.392C591.779 138.104 590.891 137.816 590.219 137.528C589.563 137.24 588.995 136.792 588.515 136.184C588.051 135.56 587.819 134.728 587.819 133.688C587.819 132.776 588.051 131.968 588.515 131.264C588.979 130.56 589.627 130.016 590.459 129.632C591.307 129.248 592.275 129.056 593.363 129.056C594.931 129.056 596.211 129.448 597.203 130.232C598.211 131.016 598.779 132.056 598.907 133.352H596.507C596.427 132.712 596.091 132.152 595.499 131.672C594.907 131.176 594.123 130.928 593.147 130.928C592.235 130.928 591.491 131.168 590.915 131.648C590.339 132.112 590.051 132.768 590.051 133.616C590.051 134.224 590.219 134.72 590.555 135.104C590.907 135.488 591.331 135.784 591.827 135.992C592.339 136.184 593.051 136.408 593.963 136.664C595.067 136.968 595.955 137.272 596.627 137.576C597.299 137.864 597.875 138.32 598.355 138.944C598.835 139.552 599.075 140.384 599.075 141.44C599.075 142.256 598.859 143.024 598.427 143.744C597.995 144.464 597.355 145.048 596.507 145.496C595.659 145.944 594.659 146.168 593.507 146.168ZM604.953 134.648V142.4C604.953 143.04 605.089 143.496 605.361 143.768C605.633 144.024 606.105 144.152 606.777 144.152H608.385V146H606.417C605.201 146 604.289 145.72 603.681 145.16C603.073 144.6 602.769 143.68 602.769 142.4V134.648H601.065V132.848H602.769V129.536H604.953V132.848H608.385V134.648H604.953ZM623.032 138.92C623.032 139.336 623.008 139.776 622.96 140.24H612.448C612.528 141.536 612.968 142.552 613.768 143.288C614.584 144.008 615.568 144.368 616.72 144.368C617.664 144.368 618.448 144.152 619.072 143.72C619.712 143.272 620.16 142.68 620.416 141.944H622.768C622.416 143.208 621.712 144.24 620.656 145.04C619.6 145.824 618.288 146.216 616.72 146.216C615.472 146.216 614.352 145.936 613.36 145.376C612.384 144.816 611.616 144.024 611.056 143C610.496 141.96 610.216 140.76 610.216 139.4C610.216 138.04 610.488 136.848 611.032 135.824C611.576 134.8 612.336 134.016 613.312 133.472C614.304 132.912 615.44 132.632 616.72 132.632C617.968 132.632 619.072 132.904 620.032 133.448C620.992 133.992 621.728 134.744 622.24 135.704C622.768 136.648 623.032 137.72 623.032 138.92ZM620.776 138.464C620.776 137.632 620.592 136.92 620.224 136.328C619.856 135.72 619.352 135.264 618.712 134.96C618.088 134.64 617.392 134.48 616.624 134.48C615.52 134.48 614.576 134.832 613.792 135.536C613.024 136.24 612.584 137.216 612.472 138.464H620.776ZM625.098 139.376C625.098 138.032 625.37 136.856 625.914 135.848C626.458 134.824 627.202 134.032 628.146 133.472C629.106 132.912 630.17 132.632 631.338 132.632C632.49 132.632 633.49 132.88 634.338 133.376C635.186 133.872 635.818 134.496 636.234 135.248V132.848H638.442V146H636.234V143.552C635.802 144.32 635.154 144.96 634.29 145.472C633.442 145.968 632.45 146.216 631.314 146.216C630.146 146.216 629.09 145.928 628.146 145.352C627.202 144.776 626.458 143.968 625.914 142.928C625.37 141.888 625.098 140.704 625.098 139.376ZM636.234 139.4C636.234 138.408 636.034 137.544 635.634 136.808C635.234 136.072 634.69 135.512 634.002 135.128C633.33 134.728 632.586 134.528 631.77 134.528C630.954 134.528 630.21 134.72 629.538 135.104C628.866 135.488 628.33 136.048 627.93 136.784C627.53 137.52 627.33 138.384 627.33 139.376C627.33 140.384 627.53 141.264 627.93 142.016C628.33 142.752 628.866 143.32 629.538 143.72C630.21 144.104 630.954 144.296 631.77 144.296C632.586 144.296 633.33 144.104 634.002 143.72C634.69 143.32 635.234 142.752 635.634 142.016C636.034 141.264 636.234 140.392 636.234 139.4ZM657.949 132.608C658.973 132.608 659.885 132.824 660.685 133.256C661.485 133.672 662.117 134.304 662.581 135.152C663.045 136 663.277 137.032 663.277 138.248V146H661.117V138.56C661.117 137.248 660.789 136.248 660.133 135.56C659.493 134.856 658.621 134.504 657.517 134.504C656.381 134.504 655.477 134.872 654.805 135.608C654.133 136.328 653.797 137.376 653.797 138.752V146H651.637V138.56C651.637 137.248 651.309 136.248 650.653 135.56C650.013 134.856 649.141 134.504 648.037 134.504C646.901 134.504 645.997 134.872 645.325 135.608C644.653 136.328 644.317 137.376 644.317 138.752V146H642.133V132.848H644.317V134.744C644.749 134.056 645.325 133.528 646.045 133.16C646.781 132.792 647.589 132.608 648.469 132.608C649.573 132.608 650.549 132.856 651.397 133.352C652.245 133.848 652.877 134.576 653.293 135.536C653.661 134.608 654.269 133.888 655.117 133.376C655.965 132.864 656.909 132.608 657.949 132.608ZM687.082 129.272L680.77 146H678.25L671.938 129.272H674.266L679.522 143.696L684.778 129.272H687.082ZM698.285 146L694.301 139.16H691.661V146H689.477V129.272H694.877C696.141 129.272 697.205 129.488 698.069 129.92C698.949 130.352 699.605 130.936 700.037 131.672C700.469 132.408 700.685 133.248 700.685 134.192C700.685 135.344 700.349 136.36 699.677 137.24C699.021 138.12 698.029 138.704 696.701 138.992L700.901 146H698.285ZM691.661 137.408H694.877C696.061 137.408 696.949 137.12 697.541 136.544C698.133 135.952 698.429 135.168 698.429 134.192C698.429 133.2 698.133 132.432 697.541 131.888C696.965 131.344 696.077 131.072 694.877 131.072H691.661V137.408ZM709.853 144.248C711.885 142.616 713.477 141.28 714.629 140.24C715.781 139.184 716.749 138.088 717.533 136.952C718.333 135.8 718.733 134.672 718.733 133.568C718.733 132.528 718.477 131.712 717.965 131.12C717.469 130.512 716.661 130.208 715.541 130.208C714.453 130.208 713.605 130.552 712.997 131.24C712.405 131.912 712.085 132.816 712.037 133.952H709.925C709.989 132.16 710.533 130.776 711.557 129.8C712.581 128.824 713.901 128.336 715.517 128.336C717.165 128.336 718.469 128.792 719.429 129.704C720.405 130.616 720.893 131.872 720.893 133.472C720.893 134.8 720.493 136.096 719.693 137.36C718.909 138.608 718.013 139.712 717.005 140.672C715.997 141.616 714.709 142.72 713.141 143.984H721.397V145.808H709.853V144.248ZM724.978 146.144C724.562 146.144 724.21 146 723.922 145.712C723.634 145.424 723.49 145.072 723.49 144.656C723.49 144.24 723.634 143.888 723.922 143.6C724.21 143.312 724.562 143.168 724.978 143.168C725.378 143.168 725.714 143.312 725.986 143.6C726.274 143.888 726.418 144.24 726.418 144.656C726.418 145.072 726.274 145.424 725.986 145.712C725.714 146 725.378 146.144 724.978 146.144ZM728.961 137.144C728.961 134.392 729.409 132.248 730.305 130.712C731.201 129.16 732.769 128.384 735.009 128.384C737.233 128.384 738.793 129.16 739.689 130.712C740.585 132.248 741.033 134.392 741.033 137.144C741.033 139.944 740.585 142.12 739.689 143.672C738.793 145.224 737.233 146 735.009 146C732.769 146 731.201 145.224 730.305 143.672C729.409 142.12 728.961 139.944 728.961 137.144ZM738.873 137.144C738.873 135.752 738.777 134.576 738.585 133.616C738.409 132.64 738.033 131.856 737.457 131.264C736.897 130.672 736.081 130.376 735.009 130.376C733.921 130.376 733.089 130.672 732.513 131.264C731.953 131.856 731.577 132.64 731.385 133.616C731.209 134.576 731.121 135.752 731.121 137.144C731.121 138.584 731.209 139.792 731.385 140.768C731.577 141.744 731.953 142.528 732.513 143.12C733.089 143.712 733.921 144.008 735.009 144.008C736.081 144.008 736.897 143.712 737.457 143.12C738.033 142.528 738.409 141.744 738.585 140.768C738.777 139.792 738.873 138.584 738.873 137.144ZM756.093 146.168C754.989 146.168 753.997 145.976 753.117 145.592C752.253 145.192 751.573 144.648 751.077 143.96C750.581 143.256 750.325 142.448 750.309 141.536H752.637C752.717 142.32 753.037 142.984 753.597 143.528C754.173 144.056 755.005 144.32 756.093 144.32C757.133 144.32 757.949 144.064 758.541 143.552C759.149 143.024 759.453 142.352 759.453 141.536C759.453 140.896 759.277 140.376 758.925 139.976C758.573 139.576 758.133 139.272 757.605 139.064C757.077 138.856 756.365 138.632 755.469 138.392C754.365 138.104 753.477 137.816 752.805 137.528C752.149 137.24 751.581 136.792 751.101 136.184C750.637 135.56 750.405 134.728 750.405 133.688C750.405 132.776 750.637 131.968 751.101 131.264C751.565 130.56 752.213 130.016 753.045 129.632C753.893 129.248 754.861 129.056 755.949 129.056C757.517 129.056 758.797 129.448 759.789 130.232C760.797 131.016 761.365 132.056 761.493 133.352H759.093C759.013 132.712 758.677 132.152 758.085 131.672C757.493 131.176 756.709 130.928 755.733 130.928C754.821 130.928 754.077 131.168 753.501 131.648C752.925 132.112 752.637 132.768 752.637 133.616C752.637 134.224 752.805 134.72 753.141 135.104C753.493 135.488 753.917 135.784 754.413 135.992C754.925 136.184 755.637 136.408 756.549 136.664C757.653 136.968 758.541 137.272 759.213 137.576C759.885 137.864 760.461 138.32 760.941 138.944C761.421 139.552 761.661 140.384 761.661 141.44C761.661 142.256 761.445 143.024 761.013 143.744C760.581 144.464 759.941 145.048 759.093 145.496C758.245 145.944 757.245 146.168 756.093 146.168ZM776.875 138.92C776.875 139.336 776.851 139.776 776.803 140.24H766.291C766.371 141.536 766.811 142.552 767.611 143.288C768.427 144.008 769.411 144.368 770.563 144.368C771.507 144.368 772.291 144.152 772.915 143.72C773.555 143.272 774.003 142.68 774.259 141.944H776.611C776.259 143.208 775.555 144.24 774.499 145.04C773.443 145.824 772.131 146.216 770.563 146.216C769.315 146.216 768.195 145.936 767.203 145.376C766.227 144.816 765.459 144.024 764.899 143C764.339 141.96 764.059 140.76 764.059 139.4C764.059 138.04 764.331 136.848 764.875 135.824C765.419 134.8 766.179 134.016 767.155 133.472C768.147 132.912 769.283 132.632 770.563 132.632C771.811 132.632 772.915 132.904 773.875 133.448C774.835 133.992 775.571 134.744 776.083 135.704C776.611 136.648 776.875 137.72 776.875 138.92ZM774.619 138.464C774.619 137.632 774.435 136.92 774.067 136.328C773.699 135.72 773.195 135.264 772.555 134.96C771.931 134.64 771.235 134.48 770.467 134.48C769.363 134.48 768.419 134.832 767.635 135.536C766.867 136.24 766.427 137.216 766.315 138.464H774.619ZM786.166 132.608C787.766 132.608 789.062 133.096 790.054 134.072C791.046 135.032 791.542 136.424 791.542 138.248V146H789.382V138.56C789.382 137.248 789.054 136.248 788.398 135.56C787.742 134.856 786.846 134.504 785.71 134.504C784.558 134.504 783.638 134.864 782.95 135.584C782.278 136.304 781.942 137.352 781.942 138.728V146H779.758V132.848H781.942V134.72C782.374 134.048 782.958 133.528 783.694 133.16C784.446 132.792 785.27 132.608 786.166 132.608ZM799.766 146.216C798.758 146.216 797.854 146.048 797.054 145.712C796.254 145.36 795.622 144.88 795.158 144.272C794.694 143.648 794.438 142.936 794.39 142.136H796.646C796.71 142.792 797.014 143.328 797.558 143.744C798.118 144.16 798.846 144.368 799.742 144.368C800.574 144.368 801.23 144.184 801.71 143.816C802.19 143.448 802.43 142.984 802.43 142.424C802.43 141.848 802.174 141.424 801.662 141.152C801.15 140.864 800.358 140.584 799.286 140.312C798.31 140.056 797.51 139.8 796.886 139.544C796.278 139.272 795.75 138.88 795.302 138.368C794.87 137.84 794.654 137.152 794.654 136.304C794.654 135.632 794.854 135.016 795.254 134.456C795.654 133.896 796.222 133.456 796.958 133.136C797.694 132.8 798.534 132.632 799.478 132.632C800.934 132.632 802.11 133 803.006 133.736C803.902 134.472 804.382 135.48 804.446 136.76H802.262C802.214 136.072 801.934 135.52 801.422 135.104C800.926 134.688 800.254 134.48 799.406 134.48C798.622 134.48 797.998 134.648 797.534 134.984C797.07 135.32 796.838 135.76 796.838 136.304C796.838 136.736 796.974 137.096 797.246 137.384C797.534 137.656 797.886 137.88 798.302 138.056C798.734 138.216 799.326 138.4 800.078 138.608C801.022 138.864 801.79 139.12 802.382 139.376C802.974 139.616 803.478 139.984 803.894 140.48C804.326 140.976 804.55 141.624 804.566 142.424C804.566 143.144 804.366 143.792 803.966 144.368C803.566 144.944 802.998 145.4 802.262 145.736C801.542 146.056 800.71 146.216 799.766 146.216ZM813.385 146.216C812.153 146.216 811.033 145.936 810.025 145.376C809.033 144.816 808.249 144.024 807.673 143C807.113 141.96 806.833 140.76 806.833 139.4C806.833 138.056 807.121 136.872 807.697 135.848C808.289 134.808 809.089 134.016 810.097 133.472C811.105 132.912 812.233 132.632 813.481 132.632C814.729 132.632 815.857 132.912 816.865 133.472C817.873 134.016 818.665 134.8 819.241 135.824C819.833 136.848 820.129 138.04 820.129 139.4C820.129 140.76 819.825 141.96 819.217 143C818.625 144.024 817.817 144.816 816.793 145.376C815.769 145.936 814.633 146.216 813.385 146.216ZM813.385 144.296C814.169 144.296 814.905 144.112 815.593 143.744C816.281 143.376 816.833 142.824 817.249 142.088C817.681 141.352 817.897 140.456 817.897 139.4C817.897 138.344 817.689 137.448 817.273 136.712C816.857 135.976 816.313 135.432 815.641 135.08C814.969 134.712 814.241 134.528 813.457 134.528C812.657 134.528 811.921 134.712 811.249 135.08C810.593 135.432 810.065 135.976 809.665 136.712C809.265 137.448 809.065 138.344 809.065 139.4C809.065 140.472 809.257 141.376 809.641 142.112C810.041 142.848 810.569 143.4 811.225 143.768C811.881 144.12 812.601 144.296 813.385 144.296ZM825.184 134.984C825.568 134.232 826.112 133.648 826.816 133.232C827.536 132.816 828.408 132.608 829.432 132.608V134.864H828.856C826.408 134.864 825.184 136.192 825.184 138.848V146H823V132.848H825.184V134.984ZM836.609 146.216C835.601 146.216 834.697 146.048 833.897 145.712C833.097 145.36 832.465 144.88 832.001 144.272C831.537 143.648 831.281 142.936 831.233 142.136H833.489C833.553 142.792 833.857 143.328 834.401 143.744C834.961 144.16 835.689 144.368 836.585 144.368C837.417 144.368 838.073 144.184 838.553 143.816C839.033 143.448 839.273 142.984 839.273 142.424C839.273 141.848 839.017 141.424 838.505 141.152C837.993 140.864 837.201 140.584 836.129 140.312C835.153 140.056 834.353 139.8 833.729 139.544C833.121 139.272 832.593 138.88 832.145 138.368C831.713 137.84 831.497 137.152 831.497 136.304C831.497 135.632 831.697 135.016 832.097 134.456C832.497 133.896 833.065 133.456 833.801 133.136C834.537 132.8 835.377 132.632 836.321 132.632C837.777 132.632 838.953 133 839.849 133.736C840.745 134.472 841.225 135.48 841.289 136.76H839.105C839.057 136.072 838.777 135.52 838.265 135.104C837.769 134.688 837.097 134.48 836.249 134.48C835.465 134.48 834.841 134.648 834.377 134.984C833.913 135.32 833.681 135.76 833.681 136.304C833.681 136.736 833.817 137.096 834.089 137.384C834.377 137.656 834.729 137.88 835.145 138.056C835.577 138.216 836.169 138.4 836.921 138.608C837.865 138.864 838.633 139.12 839.225 139.376C839.817 139.616 840.321 139.984 840.737 140.48C841.169 140.976 841.393 141.624 841.409 142.424C841.409 143.144 841.209 143.792 840.809 144.368C840.409 144.944 839.841 145.4 839.105 145.736C838.385 146.056 837.553 146.216 836.609 146.216Z" fill="white"/>
<path d="M1147.18 129.272V146H1144.99V138.416H1136.47V146H1134.29V129.272H1136.47V136.616H1144.99V129.272H1147.18ZM1156.11 129.272C1157.94 129.272 1159.51 129.616 1160.84 130.304C1162.19 130.976 1163.21 131.944 1163.91 133.208C1164.63 134.472 1164.99 135.96 1164.99 137.672C1164.99 139.384 1164.63 140.872 1163.91 142.136C1163.21 143.384 1162.19 144.344 1160.84 145.016C1159.51 145.672 1157.94 146 1156.11 146H1150.91V129.272H1156.11ZM1156.11 144.2C1158.27 144.2 1159.92 143.632 1161.06 142.496C1162.19 141.344 1162.76 139.736 1162.76 137.672C1162.76 135.592 1162.19 133.968 1161.03 132.8C1159.9 131.632 1158.26 131.048 1156.11 131.048H1153.09V144.2H1156.11ZM1176.46 144.224H1182.31V146H1174.27V129.272H1176.46V144.224ZM1193.44 146L1189.46 139.16H1186.82V146H1184.63V129.272H1190.03C1191.3 129.272 1192.36 129.488 1193.23 129.92C1194.11 130.352 1194.76 130.936 1195.19 131.672C1195.63 132.408 1195.84 133.248 1195.84 134.192C1195.84 135.344 1195.51 136.36 1194.83 137.24C1194.18 138.12 1193.19 138.704 1191.86 138.992L1196.06 146H1193.44ZM1186.82 137.408H1190.03C1191.22 137.408 1192.11 137.12 1192.7 136.544C1193.29 135.952 1193.59 135.168 1193.59 134.192C1193.59 133.2 1193.29 132.432 1192.7 131.888C1192.12 131.344 1191.23 131.072 1190.03 131.072H1186.82V137.408ZM1209.12 142.28H1201.83L1200.48 146H1198.18L1204.23 129.368H1206.75L1212.77 146H1210.47L1209.12 142.28ZM1208.5 140.504L1205.47 132.056L1202.45 140.504H1208.5Z" fill="white"/>
<path d="M596.697 77.06V80.45H591.117V98H586.917V80.45H581.337V77.06H596.697ZM603.961 83.96C604.501 83.08 605.201 82.39 606.061 81.89C606.941 81.39 607.941 81.14 609.061 81.14V85.55H607.951C606.631 85.55 605.631 85.86 604.951 86.48C604.291 87.1 603.961 88.18 603.961 89.72V98H599.761V81.38H603.961V83.96ZM610.81 89.63C610.81 87.95 611.14 86.46 611.8 85.16C612.48 83.86 613.39 82.86 614.53 82.16C615.69 81.46 616.98 81.11 618.4 81.11C619.64 81.11 620.72 81.36 621.64 81.86C622.58 82.36 623.33 82.99 623.89 83.75V81.38H628.12V98H623.89V95.57C623.35 96.35 622.6 97 621.64 97.52C620.7 98.02 619.61 98.27 618.37 98.27C616.97 98.27 615.69 97.91 614.53 97.19C613.39 96.47 612.48 95.46 611.8 94.16C611.14 92.84 610.81 91.33 610.81 89.63ZM623.89 89.69C623.89 88.67 623.69 87.8 623.29 87.08C622.89 86.34 622.35 85.78 621.67 85.4C620.99 85 620.26 84.8 619.48 84.8C618.7 84.8 617.98 84.99 617.32 85.37C616.66 85.75 616.12 86.31 615.7 87.05C615.3 87.77 615.1 88.63 615.1 89.63C615.1 90.63 615.3 91.51 615.7 92.27C616.12 93.01 616.66 93.58 617.32 93.98C618 94.38 618.72 94.58 619.48 94.58C620.26 94.58 620.99 94.39 621.67 94.01C622.35 93.61 622.89 93.05 623.29 92.33C623.69 91.59 623.89 90.71 623.89 89.69ZM631.142 89.69C631.142 87.97 631.492 86.47 632.192 85.19C632.892 83.89 633.862 82.89 635.102 82.19C636.342 81.47 637.762 81.11 639.362 81.11C641.422 81.11 643.122 81.63 644.462 82.67C645.822 83.69 646.732 85.13 647.192 86.99H642.662C642.422 86.27 642.012 85.71 641.432 85.31C640.872 84.89 640.172 84.68 639.332 84.68C638.132 84.68 637.182 85.12 636.482 86C635.782 86.86 635.432 88.09 635.432 89.69C635.432 91.27 635.782 92.5 636.482 93.38C637.182 94.24 638.132 94.67 639.332 94.67C641.032 94.67 642.142 93.91 642.662 92.39H647.192C646.732 94.19 645.822 95.62 644.462 96.68C643.102 97.74 641.402 98.27 639.362 98.27C637.762 98.27 636.342 97.92 635.102 97.22C633.862 96.5 632.892 95.5 632.192 94.22C631.492 92.92 631.142 91.41 631.142 89.69ZM660.109 98L654.469 90.92V98H650.269V75.8H654.469V88.43L660.049 81.38H665.509L658.189 89.72L665.569 98H660.109ZM690.837 81.38L680.547 105.86H676.077L679.677 97.58L673.017 81.38H677.727L682.017 92.99L686.367 81.38H690.837ZM700.481 98.27C698.881 98.27 697.441 97.92 696.161 97.22C694.881 96.5 693.871 95.49 693.131 94.19C692.411 92.89 692.051 91.39 692.051 89.69C692.051 87.99 692.421 86.49 693.161 85.19C693.921 83.89 694.951 82.89 696.251 82.19C697.551 81.47 699.001 81.11 700.601 81.11C702.201 81.11 703.651 81.47 704.951 82.19C706.251 82.89 707.271 83.89 708.011 85.19C708.771 86.49 709.151 87.99 709.151 89.69C709.151 91.39 708.761 92.89 707.981 94.19C707.221 95.49 706.181 96.5 704.861 97.22C703.561 97.92 702.101 98.27 700.481 98.27ZM700.481 94.61C701.241 94.61 701.951 94.43 702.611 94.07C703.291 93.69 703.831 93.13 704.231 92.39C704.631 91.65 704.831 90.75 704.831 89.69C704.831 88.11 704.411 86.9 703.571 86.06C702.751 85.2 701.741 84.77 700.541 84.77C699.341 84.77 698.331 85.2 697.511 86.06C696.711 86.9 696.311 88.11 696.311 89.69C696.311 91.27 696.701 92.49 697.481 93.35C698.281 94.19 699.281 94.61 700.481 94.61ZM727.922 81.38V98H723.692V95.9C723.152 96.62 722.442 97.19 721.562 97.61C720.702 98.01 719.762 98.21 718.742 98.21C717.442 98.21 716.292 97.94 715.292 97.4C714.292 96.84 713.502 96.03 712.922 94.97C712.362 93.89 712.082 92.61 712.082 91.13V81.38H716.282V90.53C716.282 91.85 716.612 92.87 717.272 93.59C717.932 94.29 718.832 94.64 719.972 94.64C721.132 94.64 722.042 94.29 722.702 93.59C723.362 92.87 723.692 91.85 723.692 90.53V81.38H727.922ZM736.266 83.96C736.806 83.08 737.506 82.39 738.366 81.89C739.246 81.39 740.246 81.14 741.366 81.14V85.55H740.256C738.936 85.55 737.936 85.86 737.256 86.48C736.596 87.1 736.266 88.18 736.266 89.72V98H732.066V81.38H736.266V83.96ZM768.713 77.06V98H764.513V89.09H755.543V98H751.343V77.06H755.543V85.67H764.513V77.06H768.713ZM771.767 89.63C771.767 87.95 772.097 86.46 772.757 85.16C773.437 83.86 774.347 82.86 775.487 82.16C776.647 81.46 777.937 81.11 779.357 81.11C780.597 81.11 781.677 81.36 782.597 81.86C783.537 82.36 784.287 82.99 784.847 83.75V81.38H789.077V98H784.847V95.57C784.307 96.35 783.557 97 782.597 97.52C781.657 98.02 780.567 98.27 779.327 98.27C777.927 98.27 776.647 97.91 775.487 97.19C774.347 96.47 773.437 95.46 772.757 94.16C772.097 92.84 771.767 91.33 771.767 89.63ZM784.847 89.69C784.847 88.67 784.647 87.8 784.247 87.08C783.847 86.34 783.307 85.78 782.627 85.4C781.947 85 781.217 84.8 780.437 84.8C779.657 84.8 778.937 84.99 778.277 85.37C777.617 85.75 777.077 86.31 776.657 87.05C776.257 87.77 776.057 88.63 776.057 89.63C776.057 90.63 776.257 91.51 776.657 92.27C777.077 93.01 777.617 93.58 778.277 93.98C778.957 94.38 779.677 94.58 780.437 94.58C781.217 94.58 781.947 94.39 782.627 94.01C783.307 93.61 783.847 93.05 784.247 92.33C784.647 91.59 784.847 90.71 784.847 89.69ZM802.389 81.14C804.369 81.14 805.969 81.77 807.189 83.03C808.409 84.27 809.019 86.01 809.019 88.25V98H804.819V88.82C804.819 87.5 804.489 86.49 803.829 85.79C803.169 85.07 802.269 84.71 801.129 84.71C799.969 84.71 799.049 85.07 798.369 85.79C797.709 86.49 797.379 87.5 797.379 88.82V98H793.179V81.38H797.379V83.45C797.939 82.73 798.649 82.17 799.509 81.77C800.389 81.35 801.349 81.14 802.389 81.14ZM811.933 89.63C811.933 87.95 812.263 86.46 812.923 85.16C813.603 83.86 814.523 82.86 815.683 82.16C816.843 81.46 818.133 81.11 819.553 81.11C820.633 81.11 821.663 81.35 822.643 81.83C823.623 82.29 824.403 82.91 824.983 83.69V75.8H829.243V98H824.983V95.54C824.463 96.36 823.733 97.02 822.793 97.52C821.853 98.02 820.763 98.27 819.523 98.27C818.123 98.27 816.843 97.91 815.683 97.19C814.523 96.47 813.603 95.46 812.923 94.16C812.263 92.84 811.933 91.33 811.933 89.63ZM825.013 89.69C825.013 88.67 824.813 87.8 824.413 87.08C824.013 86.34 823.473 85.78 822.793 85.4C822.113 85 821.383 84.8 820.603 84.8C819.823 84.8 819.103 84.99 818.443 85.37C817.783 85.75 817.243 86.31 816.823 87.05C816.423 87.77 816.223 88.63 816.223 89.63C816.223 90.63 816.423 91.51 816.823 92.27C817.243 93.01 817.783 93.58 818.443 93.98C819.123 94.38 819.843 94.58 820.603 94.58C821.383 94.58 822.113 94.39 822.793 94.01C823.473 93.61 824.013 93.05 824.413 92.33C824.813 91.59 825.013 90.71 825.013 89.69ZM839.705 98.27C838.345 98.27 837.125 98.03 836.045 97.55C834.965 97.05 834.105 96.38 833.465 95.54C832.845 94.7 832.505 93.77 832.445 92.75H836.675C836.755 93.39 837.065 93.92 837.605 94.34C838.165 94.76 838.855 94.97 839.675 94.97C840.475 94.97 841.095 94.81 841.535 94.49C841.995 94.17 842.225 93.76 842.225 93.26C842.225 92.72 841.945 92.32 841.385 92.06C840.845 91.78 839.975 91.48 838.775 91.16C837.535 90.86 836.515 90.55 835.715 90.23C834.935 89.91 834.255 89.42 833.675 88.76C833.115 88.1 832.835 87.21 832.835 86.09C832.835 85.17 833.095 84.33 833.615 83.57C834.155 82.81 834.915 82.21 835.895 81.77C836.895 81.33 838.065 81.11 839.405 81.11C841.385 81.11 842.965 81.61 844.145 82.61C845.325 83.59 845.975 84.92 846.095 86.6H842.075C842.015 85.94 841.735 85.42 841.235 85.04C840.755 84.64 840.105 84.44 839.285 84.44C838.525 84.44 837.935 84.58 837.515 84.86C837.115 85.14 836.915 85.53 836.915 86.03C836.915 86.59 837.195 87.02 837.755 87.32C838.315 87.6 839.185 87.89 840.365 88.19C841.565 88.49 842.555 88.8 843.335 89.12C844.115 89.44 844.785 89.94 845.345 90.62C845.925 91.28 846.225 92.16 846.245 93.26C846.245 94.22 845.975 95.08 845.435 95.84C844.915 96.6 844.155 97.2 843.155 97.64C842.175 98.06 841.025 98.27 839.705 98.27Z" fill="#1FB5BB"/>
<path d="M1035.87 77.06V98H1031.67V89.09H1022.7V98H1018.5V77.06H1022.7V85.67H1031.67V77.06H1035.87ZM1042.14 79.4C1041.4 79.4 1040.78 79.17 1040.28 78.71C1039.8 78.23 1039.56 77.64 1039.56 76.94C1039.56 76.24 1039.8 75.66 1040.28 75.2C1040.78 74.72 1041.4 74.48 1042.14 74.48C1042.88 74.48 1043.49 74.72 1043.97 75.2C1044.47 75.66 1044.72 76.24 1044.72 76.94C1044.72 77.64 1044.47 78.23 1043.97 78.71C1043.49 79.17 1042.88 79.4 1042.14 79.4ZM1044.21 81.38V98H1040.01V81.38H1044.21ZM1054.87 81.11C1056.11 81.11 1057.2 81.36 1058.14 81.86C1059.08 82.34 1059.82 82.97 1060.36 83.75V81.38H1064.59V98.12C1064.59 99.66 1064.28 101.03 1063.66 102.23C1063.04 103.45 1062.11 104.41 1060.87 105.11C1059.63 105.83 1058.13 106.19 1056.37 106.19C1054.01 106.19 1052.07 105.64 1050.55 104.54C1049.05 103.44 1048.2 101.94 1048 100.04H1052.17C1052.39 100.8 1052.86 101.4 1053.58 101.84C1054.32 102.3 1055.21 102.53 1056.25 102.53C1057.47 102.53 1058.46 102.16 1059.22 101.42C1059.98 100.7 1060.36 99.6 1060.36 98.12V95.54C1059.82 96.32 1059.07 96.97 1058.11 97.49C1057.17 98.01 1056.09 98.27 1054.87 98.27C1053.47 98.27 1052.19 97.91 1051.03 97.19C1049.87 96.47 1048.95 95.46 1048.27 94.16C1047.61 92.84 1047.28 91.33 1047.28 89.63C1047.28 87.95 1047.61 86.46 1048.27 85.16C1048.95 83.86 1049.86 82.86 1051 82.16C1052.16 81.46 1053.45 81.11 1054.87 81.11ZM1060.36 89.69C1060.36 88.67 1060.16 87.8 1059.76 87.08C1059.36 86.34 1058.82 85.78 1058.14 85.4C1057.46 85 1056.73 84.8 1055.95 84.8C1055.17 84.8 1054.45 84.99 1053.79 85.37C1053.13 85.75 1052.59 86.31 1052.17 87.05C1051.77 87.77 1051.57 88.63 1051.57 89.63C1051.57 90.63 1051.77 91.51 1052.17 92.27C1052.59 93.01 1053.13 93.58 1053.79 93.98C1054.47 94.38 1055.19 94.58 1055.95 94.58C1056.73 94.58 1057.46 94.39 1058.14 94.01C1058.82 93.61 1059.36 93.05 1059.76 92.33C1060.16 91.59 1060.36 90.71 1060.36 89.69ZM1078.05 81.14C1079.31 81.14 1080.43 81.42 1081.41 81.98C1082.39 82.52 1083.15 83.33 1083.69 84.41C1084.25 85.47 1084.53 86.75 1084.53 88.25V98H1080.33V88.82C1080.33 87.5 1080 86.49 1079.34 85.79C1078.68 85.07 1077.78 84.71 1076.64 84.71C1075.48 84.71 1074.56 85.07 1073.88 85.79C1073.22 86.49 1072.89 87.5 1072.89 88.82V98H1068.69V75.8H1072.89V83.45C1073.43 82.73 1074.15 82.17 1075.05 81.77C1075.95 81.35 1076.95 81.14 1078.05 81.14ZM1111.27 101.69L1108.09 97.88C1107.21 98.1 1106.31 98.21 1105.39 98.21C1103.43 98.21 1101.63 97.75 1099.99 96.83C1098.35 95.91 1097.05 94.64 1096.09 93.02C1095.13 91.38 1094.65 89.53 1094.65 87.47C1094.65 85.43 1095.13 83.6 1096.09 81.98C1097.05 80.34 1098.35 79.06 1099.99 78.14C1101.63 77.22 1103.43 76.76 1105.39 76.76C1107.37 76.76 1109.17 77.22 1110.79 78.14C1112.43 79.06 1113.72 80.34 1114.66 81.98C1115.62 83.6 1116.1 85.43 1116.1 87.47C1116.1 89.33 1115.7 91.03 1114.9 92.57C1114.12 94.09 1113.05 95.33 1111.69 96.29L1116.49 101.69H1111.27ZM1098.97 87.47C1098.97 88.87 1099.24 90.1 1099.78 91.16C1100.32 92.22 1101.07 93.04 1102.03 93.62C1103.01 94.18 1104.13 94.46 1105.39 94.46C1106.65 94.46 1107.76 94.18 1108.72 93.62C1109.68 93.04 1110.43 92.22 1110.97 91.16C1111.51 90.1 1111.78 88.87 1111.78 87.47C1111.78 86.07 1111.51 84.85 1110.97 83.81C1110.43 82.75 1109.68 81.94 1108.72 81.38C1107.76 80.82 1106.65 80.54 1105.39 80.54C1104.13 80.54 1103.01 80.82 1102.03 81.38C1101.07 81.94 1100.32 82.75 1099.78 83.81C1099.24 84.85 1098.97 86.07 1098.97 87.47ZM1134.97 81.38V98H1130.74V95.9C1130.2 96.62 1129.49 97.19 1128.61 97.61C1127.75 98.01 1126.81 98.21 1125.79 98.21C1124.49 98.21 1123.34 97.94 1122.34 97.4C1121.34 96.84 1120.55 96.03 1119.97 94.97C1119.41 93.89 1119.13 92.61 1119.13 91.13V81.38H1123.33V90.53C1123.33 91.85 1123.66 92.87 1124.32 93.59C1124.98 94.29 1125.88 94.64 1127.02 94.64C1128.18 94.64 1129.09 94.29 1129.75 93.59C1130.41 92.87 1130.74 91.85 1130.74 90.53V81.38H1134.97ZM1138.04 89.63C1138.04 87.95 1138.37 86.46 1139.03 85.16C1139.71 83.86 1140.62 82.86 1141.76 82.16C1142.92 81.46 1144.21 81.11 1145.63 81.11C1146.87 81.11 1147.95 81.36 1148.87 81.86C1149.81 82.36 1150.56 82.99 1151.12 83.75V81.38H1155.35V98H1151.12V95.57C1150.58 96.35 1149.83 97 1148.87 97.52C1147.93 98.02 1146.84 98.27 1145.6 98.27C1144.2 98.27 1142.92 97.91 1141.76 97.19C1140.62 96.47 1139.71 95.46 1139.03 94.16C1138.37 92.84 1138.04 91.33 1138.04 89.63ZM1151.12 89.69C1151.12 88.67 1150.92 87.8 1150.52 87.08C1150.12 86.34 1149.58 85.78 1148.9 85.4C1148.22 85 1147.49 84.8 1146.71 84.8C1145.93 84.8 1145.21 84.99 1144.55 85.37C1143.89 85.75 1143.35 86.31 1142.93 87.05C1142.53 87.77 1142.33 88.63 1142.33 89.63C1142.33 90.63 1142.53 91.51 1142.93 92.27C1143.35 93.01 1143.89 93.58 1144.55 93.98C1145.23 94.38 1145.95 94.58 1146.71 94.58C1147.49 94.58 1148.22 94.39 1148.9 94.01C1149.58 93.61 1150.12 93.05 1150.52 92.33C1150.92 91.59 1151.12 90.71 1151.12 89.69ZM1163.65 75.8V98H1159.45V75.8H1163.65ZM1169.93 79.4C1169.19 79.4 1168.57 79.17 1168.07 78.71C1167.59 78.23 1167.35 77.64 1167.35 76.94C1167.35 76.24 1167.59 75.66 1168.07 75.2C1168.57 74.72 1169.19 74.48 1169.93 74.48C1170.67 74.48 1171.28 74.72 1171.76 75.2C1172.26 75.66 1172.51 76.24 1172.51 76.94C1172.51 77.64 1172.26 78.23 1171.76 78.71C1171.28 79.17 1170.67 79.4 1169.93 79.4ZM1172 81.38V98H1167.8V81.38H1172ZM1181.04 84.83V92.87C1181.04 93.43 1181.17 93.84 1181.43 94.1C1181.71 94.34 1182.17 94.46 1182.81 94.46H1184.76V98H1182.12C1178.58 98 1176.81 96.28 1176.81 92.84V84.83H1174.83V81.38H1176.81V77.27H1181.04V81.38H1184.76V84.83H1181.04ZM1203.68 81.38L1193.39 105.86H1188.92L1192.52 97.58L1185.86 81.38H1190.57L1194.86 92.99L1199.21 81.38H1203.68ZM1230.46 77.06V98H1226.26V89.09H1217.29V98H1213.09V77.06H1217.29V85.67H1226.26V77.06H1230.46ZM1233.52 89.63C1233.52 87.95 1233.85 86.46 1234.51 85.16C1235.19 83.86 1236.1 82.86 1237.24 82.16C1238.4 81.46 1239.69 81.11 1241.11 81.11C1242.35 81.11 1243.43 81.36 1244.35 81.86C1245.29 82.36 1246.04 82.99 1246.6 83.75V81.38H1250.83V98H1246.6V95.57C1246.06 96.35 1245.31 97 1244.35 97.52C1243.41 98.02 1242.32 98.27 1241.08 98.27C1239.68 98.27 1238.4 97.91 1237.24 97.19C1236.1 96.47 1235.19 95.46 1234.51 94.16C1233.85 92.84 1233.52 91.33 1233.52 89.63ZM1246.6 89.69C1246.6 88.67 1246.4 87.8 1246 87.08C1245.6 86.34 1245.06 85.78 1244.38 85.4C1243.7 85 1242.97 84.8 1242.19 84.8C1241.41 84.8 1240.69 84.99 1240.03 85.37C1239.37 85.75 1238.83 86.31 1238.41 87.05C1238.01 87.77 1237.81 88.63 1237.81 89.63C1237.81 90.63 1238.01 91.51 1238.41 92.27C1238.83 93.01 1239.37 93.58 1240.03 93.98C1240.71 94.38 1241.43 94.58 1242.19 94.58C1242.97 94.58 1243.7 94.39 1244.38 94.01C1245.06 93.61 1245.6 93.05 1246 92.33C1246.4 91.59 1246.6 90.71 1246.6 89.69ZM1259.13 83.78C1259.67 83.02 1260.41 82.39 1261.35 81.89C1262.31 81.37 1263.4 81.11 1264.62 81.11C1266.04 81.11 1267.32 81.46 1268.46 82.16C1269.62 82.86 1270.53 83.86 1271.19 85.16C1271.87 86.44 1272.21 87.93 1272.21 89.63C1272.21 91.33 1271.87 92.84 1271.19 94.16C1270.53 95.46 1269.62 96.47 1268.46 97.19C1267.32 97.91 1266.04 98.27 1264.62 98.27C1263.4 98.27 1262.32 98.02 1261.38 97.52C1260.46 97.02 1259.71 96.39 1259.13 95.63V105.92H1254.93V81.38H1259.13V83.78ZM1267.92 89.63C1267.92 88.63 1267.71 87.77 1267.29 87.05C1266.89 86.31 1266.35 85.75 1265.67 85.37C1265.01 84.99 1264.29 84.8 1263.51 84.8C1262.75 84.8 1262.03 85 1261.35 85.4C1260.69 85.78 1260.15 86.34 1259.73 87.08C1259.33 87.82 1259.13 88.69 1259.13 89.69C1259.13 90.69 1259.33 91.56 1259.73 92.3C1260.15 93.04 1260.69 93.61 1261.35 94.01C1262.03 94.39 1262.75 94.58 1263.51 94.58C1264.29 94.58 1265.01 94.38 1265.67 93.98C1266.35 93.58 1266.89 93.01 1267.29 92.27C1267.71 91.53 1267.92 90.65 1267.92 89.63ZM1280.15 84.83V92.87C1280.15 93.43 1280.28 93.84 1280.54 94.1C1280.82 94.34 1281.28 94.46 1281.92 94.46H1283.87V98H1281.23C1277.69 98 1275.92 96.28 1275.92 92.84V84.83H1273.94V81.38H1275.92V77.27H1280.15V81.38H1283.87V84.83H1280.15ZM1289.02 79.4C1288.28 79.4 1287.66 79.17 1287.16 78.71C1286.68 78.23 1286.44 77.64 1286.44 76.94C1286.44 76.24 1286.68 75.66 1287.16 75.2C1287.66 74.72 1288.28 74.48 1289.02 74.48C1289.76 74.48 1290.37 74.72 1290.85 75.2C1291.35 75.66 1291.6 76.24 1291.6 76.94C1291.6 77.64 1291.35 78.23 1290.85 78.71C1290.37 79.17 1289.76 79.4 1289.02 79.4ZM1291.09 81.38V98H1286.89V81.38H1291.09ZM1294.16 89.69C1294.16 87.97 1294.51 86.47 1295.21 85.19C1295.91 83.89 1296.88 82.89 1298.12 82.19C1299.36 81.47 1300.78 81.11 1302.38 81.11C1304.44 81.11 1306.14 81.63 1307.48 82.67C1308.84 83.69 1309.75 85.13 1310.21 86.99H1305.68C1305.44 86.27 1305.03 85.71 1304.45 85.31C1303.89 84.89 1303.19 84.68 1302.35 84.68C1301.15 84.68 1300.2 85.12 1299.5 86C1298.8 86.86 1298.45 88.09 1298.45 89.69C1298.45 91.27 1298.8 92.5 1299.5 93.38C1300.2 94.24 1301.15 94.67 1302.35 94.67C1304.05 94.67 1305.16 93.91 1305.68 92.39H1310.21C1309.75 94.19 1308.84 95.62 1307.48 96.68C1306.12 97.74 1304.42 98.27 1302.38 98.27C1300.78 98.27 1299.36 97.92 1298.12 97.22C1296.88 96.5 1295.91 95.5 1295.21 94.22C1294.51 92.92 1294.16 91.41 1294.16 89.69ZM1319.65 98.27C1318.29 98.27 1317.07 98.03 1315.99 97.55C1314.91 97.05 1314.05 96.38 1313.41 95.54C1312.79 94.7 1312.45 93.77 1312.39 92.75H1316.62C1316.7 93.39 1317.01 93.92 1317.55 94.34C1318.11 94.76 1318.8 94.97 1319.62 94.97C1320.42 94.97 1321.04 94.81 1321.48 94.49C1321.94 94.17 1322.17 93.76 1322.17 93.26C1322.17 92.72 1321.89 92.32 1321.33 92.06C1320.79 91.78 1319.92 91.48 1318.72 91.16C1317.48 90.86 1316.46 90.55 1315.66 90.23C1314.88 89.91 1314.2 89.42 1313.62 88.76C1313.06 88.1 1312.78 87.21 1312.78 86.09C1312.78 85.17 1313.04 84.33 1313.56 83.57C1314.1 82.81 1314.86 82.21 1315.84 81.77C1316.84 81.33 1318.01 81.11 1319.35 81.11C1321.33 81.11 1322.91 81.61 1324.09 82.61C1325.27 83.59 1325.92 84.92 1326.04 86.6H1322.02C1321.96 85.94 1321.68 85.42 1321.18 85.04C1320.7 84.64 1320.05 84.44 1319.23 84.44C1318.47 84.44 1317.88 84.58 1317.46 84.86C1317.06 85.14 1316.86 85.53 1316.86 86.03C1316.86 86.59 1317.14 87.02 1317.7 87.32C1318.26 87.6 1319.13 87.89 1320.31 88.19C1321.51 88.49 1322.5 88.8 1323.28 89.12C1324.06 89.44 1324.73 89.94 1325.29 90.62C1325.87 91.28 1326.17 92.16 1326.19 93.26C1326.19 94.22 1325.92 95.08 1325.38 95.84C1324.86 96.6 1324.1 97.2 1323.1 97.64C1322.12 98.06 1320.97 98.27 1319.65 98.27Z" fill="#1FB5BB"/>
<line x1="486.5" y1="60.5" x2="486.5" y2="165.5" stroke="white" stroke-linecap="round"/>
<line x1="941.5" y1="60.5" x2="941.5" y2="165.5" stroke="white" stroke-linecap="round"/>
<defs>
<linearGradient id="paint0_linear_184_172" x1="720" y1="0" x2="720" y2="226" gradientUnits="userSpaceOnUse">
<stop stop-opacity="0.15"/>
<stop offset="0.354167" stop-opacity="0.5"/>
<stop offset="0.75"/>
</linearGradient>
</defs>
</svg>
