<svg width="183" height="35" viewBox="0 0 183 35" fill="none" xmlns="http://www.w3.org/2000/svg">
<path d="M17.8427 34.5039C8.31834 34.5039 0.624023 26.818 0.624023 17.3965C0.624023 7.97501 8.31834 0.289062 17.8427 0.289062V34.5039Z" fill="white"/>
<path d="M52.28 34.5866C42.9221 34.5866 35.311 27.1899 35.0614 17.975V34.5039C25.5787 34.5039 17.8428 26.8593 17.8428 17.3965C17.8428 7.93369 25.5371 0.289062 35.0614 0.289062V16.9006C35.3525 7.68576 42.9637 0.289062 52.28 0.289062C61.8044 0.289062 69.5403 7.97501 69.5403 17.4378C69.5403 26.9006 61.8044 34.5866 52.28 34.5866Z" fill="white"/>
<path d="M80.0625 23.5538C78.69 20.1654 77.2759 16.7769 75.8618 13.3472C76.4857 13.3472 77.1095 13.3472 77.7334 13.3472C78.7732 15.9918 79.813 18.5951 80.8527 21.2397C80.8943 21.2397 80.9359 21.2397 80.9775 21.2397C82.0173 18.6364 83.057 15.9918 84.0968 13.3472C84.7207 13.3472 85.303 13.3472 86.01 13.3472C84.5959 16.7769 83.1818 20.1653 81.8093 23.5951C81.227 23.5538 80.6864 23.5538 80.0625 23.5538Z" fill="white"/>
<path d="M104.477 23.5541C102.106 23.5541 100.525 23.5541 98.1548 23.5541C98.1548 20.1657 98.1548 16.7359 98.1548 13.3062C98.7371 13.3062 99.2777 13.3062 99.86 13.3062C99.86 16.1987 99.86 19.0913 99.86 22.0252C101.69 22.0252 102.688 22.0252 104.477 22.0252C104.477 22.6037 104.477 23.0582 104.477 23.5541Z" fill="white"/>
<path d="M109.925 23.5541C109.343 23.5541 108.802 23.5541 108.22 23.5541C106.847 20.1657 105.433 16.7772 104.019 13.3062C104.684 13.3062 105.267 13.3062 105.891 13.3062C106.93 15.9508 107.97 18.5541 109.01 21.1987C109.052 21.1987 109.093 21.1987 109.135 21.1987C110.174 18.5541 111.214 15.9508 112.254 13.3062C112.878 13.3062 113.46 13.3062 114.167 13.3062C112.753 16.7772 111.339 20.1657 109.925 23.5541Z" fill="white"/>
<path d="M122.776 23.5538C120.322 23.5538 118.617 23.5538 116.122 23.5538C116.122 20.1653 116.122 16.7356 116.122 13.3472C118.534 13.3472 120.197 13.3472 122.61 13.3472C122.61 13.843 122.61 14.2976 122.61 14.7934C120.821 14.7934 119.74 14.7934 117.868 14.7934C117.868 15.7439 117.868 16.653 117.868 17.6034C119.49 17.6034 120.364 17.6034 122.027 17.6034C122.027 18.1406 122.027 18.5538 122.027 19.0496C120.405 19.0496 119.532 19.0496 117.868 19.0496C117.868 20.0827 117.868 21.0331 117.868 22.0249C119.74 22.0249 120.863 22.0249 122.735 22.0249C122.776 22.562 122.776 23.0579 122.776 23.5538Z" fill="white"/>
<path d="M133.091 13.2646H129.597V23.4713H133.091V13.2646Z" fill="white"/>
<path d="M146.192 23.4713H143.405L139.787 18.6365V23.4713H136.543V13.2646H139.454L142.99 17.8927V13.2646H146.234L146.192 23.4713Z" fill="white"/>
<path d="M168.984 23.4713H161.872V13.2646H168.943V15.9919H165.283V17.1076H168.568V19.6283H165.283V20.744H169.026V23.4713H168.984Z" fill="white"/>
<path d="M178.092 23.4713L176.637 20.6613L175.181 23.4713H171.271L174.308 18.2233L171.438 13.2646H175.306L176.637 15.9919L177.968 13.2646H181.836L178.966 18.2233L181.96 23.4713H178.092Z" fill="white"/>
<path d="M154.053 13.2646H149.644V23.4713H154.053C157.297 23.4713 159.501 21.3638 159.459 18.3473C159.459 15.3308 157.297 13.2646 154.053 13.2646ZM153.845 20.4547H153.096V16.3638H153.845C155.176 16.3638 156.007 17.1489 156.007 18.4299C156.007 19.6696 155.176 20.4547 153.845 20.4547Z" fill="white"/>
<path d="M91.4999 13.3062C90.9176 13.3062 90.4186 13.3062 89.8779 13.3062C88.3806 16.7359 86.9249 20.1243 85.4692 23.5541C86.1347 23.5541 86.717 23.5541 87.3408 23.5541C87.632 22.8516 87.9231 22.1491 88.2142 21.4466C89.8779 21.4466 91.4999 21.4466 93.122 21.4466C93.4131 22.1905 93.7042 22.8929 93.9954 23.5541C94.6192 23.5541 95.2431 23.5541 95.9086 23.5541C94.4113 20.083 92.9556 16.6946 91.4999 13.3062ZM88.8381 20.0004C89.4204 18.5128 90.0442 17.0665 90.6265 15.6202C90.6681 15.6202 90.6681 15.6202 90.7513 15.6202C91.3336 17.0665 91.9158 18.5128 92.5397 20.0004C91.292 20.0004 90.0858 20.0004 88.8381 20.0004Z" fill="white"/>
</svg>
